# Blender 3.3.1
# www.blender.org
mtllib body_shard_mill.mtl
o body_shard_mill
v -0.400000 0.549999 0.400000
v 0.722592 0.000181 -0.714061
v -0.250000 0.549999 0.250000
v 0.722592 0.000181 0.714061
v -0.400000 2.850000 0.400000
v 0.722592 -0.000181 0.714061
v 0.614203 -0.000159 0.606952
v -0.250000 2.850000 0.250000
v -0.400000 0.549999 -0.400000
v -0.722592 0.000181 0.714061
v -0.250000 0.549999 -0.250000
v -0.614203 0.000159 0.606952
v -0.400000 2.850000 -0.400000
v -0.722592 -0.000181 0.714061
v -0.614203 -0.000159 0.606952
v -0.250000 2.850000 -0.250000
v 0.400000 0.549999 0.400000
v -0.722592 0.000181 -0.714061
v 0.250000 0.549999 0.250000
v -0.722592 -0.000181 -0.714061
v 0.400000 2.850000 0.400000
v 0.722592 -0.000181 -0.714061
v 0.250000 2.850000 0.250000
v -0.416818 -0.700000 -0.416818
v -0.354295 -0.612500 -0.354295
v 0.400000 0.549999 -0.400000
v 0.250000 0.549999 -0.250000
v -0.416818 -0.700000 0.416818
v -0.354295 -0.612500 0.354295
v 0.400000 2.850000 -0.400000
v 0.416818 -0.700000 0.416818
v 0.250000 2.850000 -0.250000
v 0.354295 -0.612500 0.354295
v 0.416818 -0.700000 -0.416818
v 0.354295 -0.612500 -0.354295
v 0.400000 0.720181 0.400000
v 0.400000 0.720181 -0.400000
v -0.400000 0.720181 -0.400000
v -0.400000 0.720181 0.400000
v -0.400000 0.720181 0.400000
v 0.400000 0.720181 -0.400000
v -0.400000 0.556041 0.400000
v -0.400000 0.556041 -0.400000
v -0.400000 0.556041 0.400000
v -0.400000 0.556041 -0.400000
v 0.400000 0.556041 -0.400000
v 0.400000 0.556041 0.400000
v 0.400000 0.556041 0.400000
v 0.400000 0.556041 -0.400000
v 0.400000 0.720181 0.400000
v -0.400000 0.720181 -0.400000
v -0.500000 1.600000 0.200000
v -0.500000 2.000000 0.200000
v -0.500000 1.600000 -0.200000
v -0.500000 2.000000 -0.200000
v -0.400000 1.600000 0.200000
v -0.400000 2.000000 0.200000
v -0.400000 1.600000 -0.200000
v -0.400000 2.000000 -0.200000
v 0.614203 0.000159 0.606952
v 0.614203 0.000159 -0.606952
v -0.614203 0.000159 -0.606952
v -0.614203 -0.000159 -0.606952
v 0.614203 -0.000159 -0.606952
vn -1.0000 -0.0000 -0.0000
vn -0.0000 -0.0000 -1.0000
vn 1.0000 -0.0000 -0.0000
vn -0.0000 -0.0000 1.0000
vn -0.0000 -1.0000 -0.0000
vn -0.0000 1.0000 -0.0000
vn 0.9126 0.4089 -0.0000
vn -0.9126 0.4089 -0.0000
vn -0.9163 -0.4004 -0.0000
vn 0.9163 -0.4004 -0.0000
vn -0.0000 0.3998 0.9166
vn -0.0000 0.7214 0.6925
vn -0.0000 -0.3909 0.9204
vn -0.0000 -0.3909 -0.9204
vn -0.0000 0.3998 -0.9166
vn -0.0000 0.7214 -0.6925
vn -0.9331 -0.3596 -0.0000
vn 0.9331 -0.3596 -0.0000
vn 0.9205 0.3907 -0.0000
vn -0.9205 0.3907 -0.0000
vn -0.0000 -0.3489 -0.9372
vn -0.0000 0.3814 -0.9244
vn -0.0000 0.3814 0.9244
vn -0.0000 -0.3489 0.9372
vn -0.5996 -0.0000 0.8003
vn 0.5996 -0.0000 -0.8003
vn -0.5145 -0.8575 -0.0000
vn 0.5145 -0.8575 -0.0000
vn -0.6738 -0.0000 -0.7389
vt 0.249497 0.642022
vt 0.001203 0.642882
vt 0.584909 0.703745
vt 1.062932 0.285700
vt -0.060296 0.285848
vt 0.589689 0.701014
vt 0.001953 0.998884
vt -0.060027 0.285691
vt 1.062944 0.285763
vt 0.249497 0.983060
vt 0.001203 0.984284
vt 0.245775 0.997605
vt -0.060051 0.285697
vt 1.062405 0.285607
vt 0.077486 0.003018
vt 0.248853 0.999327
vt 0.196293 0.968786
vt 0.250735 0.643499
vt 0.000391 0.642022
vt 0.584909 0.689177
vt 1.062606 0.285676
vt -0.060286 0.285693
vt 0.589689 0.691908
vt 0.001178 0.572498
vt 0.407758 0.298713
vt 0.000391 0.983060
vt 0.250735 0.983838
vt 0.245634 0.968310
vt 1.062322 0.285695
vt -0.060062 0.285676
vt 0.083008 0.004457
vt 0.195784 0.997211
vt 0.249308 0.571856
vt 0.250575 0.642881
vt 0.001203 0.642882
vt 0.610404 0.703745
vt -0.060180 0.285644
vt 1.062938 0.285719
vt 0.605623 0.701014
vt 0.248256 0.942142
vt 0.001178 0.572498
vt 1.062983 0.285821
vt -0.060076 0.285727
vt 0.001203 0.984284
vt 0.250575 0.984284
vt 0.195871 0.997690
vt 1.062728 0.285685
vt -0.060151 0.285723
vt 0.001234 0.941646
vt 0.245924 0.968495
vt 0.249308 0.571856
vt 0.999710 0.857346
vt 0.125286 0.000370
vt 0.878082 0.000299
vt 0.685899 0.001294
vt 0.077486 0.003018
vt 0.250575 0.642881
vt 0.001399 0.643015
vt 0.610404 0.689177
vt 0.605623 0.691908
vt 0.001953 0.998884
vt 0.251460 0.607968
vt 0.878366 0.000405
vt 0.125267 0.000220
vt 0.999709 1.035234
vt 0.082524 0.001191
vt 0.685899 0.070900
vt 0.002140 0.983838
vt 0.250575 0.984284
vt 0.195581 0.968349
vt 0.878190 0.000251
vt 0.125162 0.000482
vt 0.688019 1.035234
vt 0.245416 0.997211
vt 0.248853 0.999327
vt 0.002182 0.607627
vt 0.077486 0.003018
vt 0.565093 0.070900
vt 0.877655 0.000179
vt 0.125464 0.000319
vt 0.688019 0.857291
vt 0.077486 0.003018
vt 0.565093 0.001294
vt 0.126119 0.571086
vt 0.337277 0.306816
vt 0.875077 0.571345
vt 0.746262 0.504311
vt 0.874801 0.571365
vt 0.445950 0.504311
vt 0.000331 0.001385
vt 0.126005 0.571272
vt 0.874653 0.571519
vt 0.742356 0.504311
vt 0.874565 0.571442
vt 0.441993 0.504311
vt 0.392106 0.295306
vt 0.126056 0.571007
vt 0.441993 0.504311
vt 0.446639 0.504311
vt 0.000331 0.000476
vt 0.125733 0.571149
vt 0.445950 0.504311
vt 0.446639 0.532149
vt 0.417027 0.300690
vt 0.441993 0.532149
vt 0.411095 0.309589
vt 0.742356 0.532149
vt 0.429016 0.300125
vt 0.441993 0.532149
vt 0.411095 0.309589
vt 0.742356 0.532149
vt 0.412083 0.302950
vt 0.445950 0.532149
vt 0.413690 0.308318
vt 0.746262 0.532149
vt 0.398859 0.301043
vt 0.413690 0.308318
vt 0.746262 0.532149
vt 0.424072 0.296735
vt 0.445950 0.532149
vt 0.337277 0.306816
vt 0.875077 0.571345
vt 0.746262 0.504311
vt 0.000359 0.001385
vt 0.874653 0.571519
vt 0.742356 0.504311
vt 0.752410 0.250733
vt 0.439022 0.392234
vt 0.439177 0.392497
vt 0.877410 0.250733
vt 0.500292 0.392234
vt 0.500912 0.392410
vt 0.439446 0.323080
vt 0.438221 0.323373
vt 0.752410 0.320910
vt 0.499990 0.323230
vt 0.877410 0.320910
vt 0.500749 0.323025
vt 0.438065 0.323110
vt 0.187221 0.797713
vt 0.500447 0.392497
vt 0.187221 0.857024
vt 0.499369 0.323054
vt 0.439643 0.392410
vt 0.062668 0.797713
vt 0.440402 0.392204
vt 0.499524 0.323318
vt 0.062668 0.857024
vt 0.501672 0.392204
vt 0.438686 0.323286
vt 0.386870 0.306411
vt 0.405904 0.309871
vt 0.405780 0.302173
vt 0.077486 0.003018
vt 0.077486 0.003018
s 0
usemtl body_shard_mill
f 9/19/1 1/1/1 58/145/1
f 13/26/1 57/142/1 5/10/1
f 13/27/2 26/58/2 9/18/2
f 30/69/3 17/35/3 26/57/3
f 21/45/4 1/2/4 17/34/4
f 26/59/5 17/36/5 27/60/5
f 11/23/5 1/3/5 9/20/5
f 16/32/6 13/28/6 5/12/6
f 23/50/6 30/70/6 32/74/6
f 3/7/3 16/33/3 8/16/3
f 11/24/4 32/75/4 16/33/4
f 32/76/1 19/40/1 23/49/1
f 23/51/2 3/7/2 8/16/2
f 4/8/7 37/88/7 36/84/7
f 10/21/8 38/91/8 18/37/8
f 20/43/9 28/63/9 14/29/9
f 22/47/10 31/72/10 34/79/10
f 10/22/11 4/9/11 50/122/11
f 40/96/12 50/121/12 36/85/12
f 6/14/13 28/64/13 31/71/13
f 22/48/14 24/54/14 20/42/14
f 2/5/15 18/38/15 51/125/15
f 38/90/16 41/100/16 51/124/16
f 34/81/5 28/65/5 24/52/5
f 60/151/17 49/119/17 61/152/17
f 12/25/18 45/110/18 44/108/18
f 29/66/19 63/154/19 15/31/19
f 64/155/20 33/77/20 7/15/20
f 47/114/21 60/151/21 42/104/21
f 7/15/22 29/66/22 15/31/22
f 25/56/23 64/155/23 63/154/23
f 43/106/24 62/153/24 61/152/24
f 29/67/6 35/83/6 25/55/6
f 39/95/3 42/105/3 44/109/3
f 43/107/4 41/102/4 51/126/4
f 40/99/2 47/115/2 42/103/2
f 39/95/3 45/111/3 51/126/3
f 53/130/1 54/135/1 52/127/1
f 55/138/2 58/146/2 54/133/2
f 57/143/4 52/128/4 56/139/4
f 58/147/5 52/129/5 54/134/5
f 53/132/6 59/150/6 55/136/6
f 36/87/1 49/120/1 48/118/1
f 59/148/1 13/26/1 9/19/1
f 1/1/1 5/10/1 57/142/1
f 1/1/1 57/142/1 56/140/1
f 58/145/1 59/148/1 9/19/1
f 1/1/1 56/140/1 58/145/1
f 13/26/1 59/148/1 57/142/1
f 13/27/2 30/68/2 26/58/2
f 30/69/3 21/44/3 17/35/3
f 21/45/4 5/11/4 1/2/4
f 27/60/5 11/23/5 9/20/5
f 17/36/5 1/3/5 3/6/5
f 17/36/5 3/6/5 19/39/5
f 27/60/5 9/20/5 26/59/5
f 17/36/5 19/39/5 27/60/5
f 11/23/5 3/6/5 1/3/5
f 16/32/6 32/74/6 30/70/6
f 5/12/6 21/46/6 23/50/6
f 5/12/6 23/50/6 8/17/6
f 16/32/6 30/70/6 13/28/6
f 5/12/6 8/17/6 16/32/6
f 23/50/6 21/46/6 30/70/6
f 3/7/3 11/24/3 16/33/3
f 11/24/4 27/61/4 32/75/4
f 32/76/1 27/62/1 19/40/1
f 23/51/2 19/41/2 3/7/2
f 4/8/7 2/4/7 37/88/7
f 10/21/8 39/94/8 38/91/8
f 20/43/9 24/53/9 28/63/9
f 22/47/10 6/13/10 31/72/10
f 50/122/11 40/97/11 10/22/11
f 4/9/25 36/86/25 50/122/25
f 6/14/13 14/30/13 28/64/13
f 22/48/14 34/80/14 24/54/14
f 51/125/15 41/101/15 2/5/15
f 18/38/26 38/92/26 51/125/26
f 34/81/5 31/73/5 28/65/5
f 60/151/17 48/116/17 49/119/17
f 12/25/18 62/153/18 45/110/18
f 29/66/19 25/56/19 63/154/19
f 64/155/20 35/82/20 33/77/20
f 47/114/27 48/117/27 60/151/27
f 60/151/21 12/25/21 42/104/21
f 7/15/22 33/77/22 29/66/22
f 25/56/23 35/82/23 64/155/23
f 61/152/24 46/112/24 43/106/24
f 43/106/28 45/110/28 62/153/28
f 29/67/6 33/78/6 35/83/6
f 39/95/3 40/98/3 42/105/3
f 43/107/4 46/113/4 41/102/4
f 40/99/2 50/123/2 47/115/2
f 51/126/3 38/93/3 39/95/3
f 39/95/3 44/109/3 45/111/3
f 45/111/3 43/107/3 51/126/3
f 53/130/1 55/137/1 54/135/1
f 55/138/2 59/149/2 58/146/2
f 57/143/4 53/131/4 52/128/4
f 58/147/5 56/141/5 52/129/5
f 53/132/6 57/144/6 59/150/6
f 47/115/29 50/123/29 36/87/29
f 36/87/1 37/89/1 49/120/1
f 48/118/1 47/115/1 36/87/1
