# Blender 3.3.1
# www.blender.org
mtllib cap_shard_mill.mtl
o cap_shard_mill
v -0.100000 3.100000 0.100000
v -0.100000 3.300000 0.100000
v -0.100000 3.100000 -0.100000
v -0.100000 3.300000 -0.100000
v 0.100000 3.100000 0.100000
v 0.100000 3.300000 0.100000
v 0.100000 3.100000 -0.100000
v 0.100000 3.300000 -0.100000
v -0.600000 2.650000 0.600000
v -0.600000 2.650000 -0.600000
v -0.400000 2.850000 0.400000
v 0.600000 2.650000 0.600000
v 0.600000 2.650000 -0.600000
v -0.400000 2.850000 -0.400000
v 0.004384 3.150000 -0.004384
v -0.600000 2.898173 0.600000
v 0.400000 2.850000 0.400000
v 0.004384 3.150000 0.004384
v -0.600000 2.898173 -0.600000
v 0.400000 2.850000 -0.400000
v -0.004384 3.150000 -0.004384
v 0.600000 2.898173 0.600000
v -0.004384 3.150000 0.004384
v 0.600000 2.898173 -0.600000
v -0.400000 2.650000 -0.400000
v 0.400000 2.650000 -0.400000
v 0.400000 2.650000 0.400000
v -0.400000 2.650000 0.400000
vn -1.0000 -0.0000 -0.0000
vn -0.0000 -0.0000 -1.0000
vn 1.0000 -0.0000 -0.0000
vn -0.0000 -0.0000 1.0000
vn -0.0000 -1.0000 -0.0000
vn -0.0000 1.0000 -0.0000
vn 0.3846 -0.9231 -0.0000
vn -0.3846 0.9231 -0.0000
vn -0.0000 -0.9231 0.3846
vn -0.0000 0.9231 -0.3846
vn -0.3846 -0.9231 -0.0000
vn 0.3846 0.9231 -0.0000
vn -0.0000 -0.9231 -0.3846
vn -0.0000 0.9231 0.3846
vt 0.529911 0.695313
vt 0.529911 0.686774
vt 0.538370 0.703872
vt 0.538470 0.695313
vt 0.538470 0.686774
vt 0.529842 0.703872
vt 0.538370 0.695313
vt 0.529911 0.686753
vt 0.538470 0.686753
vt 0.529842 0.695313
vt 0.529911 0.703872
vt 0.538470 0.703872
vt 0.529911 0.695313
vt 0.538470 0.695313
vt 0.754883 0.573267
vt 0.883994 0.855292
vt 0.883994 0.854237
vt 0.754883 0.573067
vt 0.754883 0.855697
vt 0.882041 0.578575
vt 0.913337 0.688287
vt 0.913337 0.687303
vt 0.996094 0.638393
vt 0.989928 0.854237
vt 0.754883 0.855469
vt 0.989928 0.855292
vt 0.989928 0.578575
vt 0.754883 0.573661
vt 0.913337 0.702657
vt 0.996094 0.575893
vt 0.499317 0.714081
vt 0.534167 0.702642
vt 0.751961 0.856868
vt 0.872133 0.573267
vt 0.872133 0.573067
vt 0.913337 0.704823
vt 0.884766 0.638393
vt 0.499317 0.715908
vt 0.534167 0.702705
vt 0.751961 0.573120
vt 0.872133 0.855697
vt 0.884766 0.575893
vt 0.913337 0.686909
vt 0.501144 0.714081
vt 0.534230 0.702642
vt 0.253008 0.856868
vt 0.253422 0.856868
vt 0.872133 0.855469
vt 0.534230 0.702705
vt 0.501144 0.715908
vt 0.253422 0.573120
vt 0.253008 0.573120
vt 0.872133 0.573661
vt 0.881716 0.620241
vt 0.904565 0.702657
vt 0.883343 0.620241
vt 0.904565 0.686909
vt 0.886273 0.814741
vt 0.989011 0.816850
vt 0.904565 0.704823
vt 0.904565 0.687303
vt 0.991556 0.814183
vt 0.880821 0.818050
vt 0.904565 0.688287
s 0
usemtl cap_shard_mill
f 2/4/1 3/8/1 1/1/1
f 4/9/2 7/13/2 3/8/2
f 8/14/3 5/11/3 7/13/3
f 6/12/4 1/2/4 5/11/4
f 7/13/5 1/3/5 3/7/5
f 4/10/6 6/12/6 8/14/6
f 18/39/6 21/45/6 23/49/6
f 24/53/3 12/25/3 13/28/3
f 16/34/1 10/19/1 9/15/1
f 10/20/5 13/27/5 25/54/5
f 9/17/5 27/59/5 12/24/5
f 19/41/2 13/28/2 10/19/2
f 15/31/7 18/38/7 16/33/7
f 18/38/8 19/40/8 16/33/8
f 18/38/9 23/50/9 19/40/9
f 23/50/10 24/51/10 19/40/10
f 23/50/11 21/44/11 24/52/11
f 21/44/12 22/46/12 24/52/12
f 21/44/13 15/31/13 22/47/13
f 15/31/14 16/33/14 22/47/14
f 22/48/4 9/18/4 12/25/4
f 14/29/3 28/64/3 25/55/3
f 20/43/4 25/55/4 26/57/4
f 17/36/1 26/57/1 27/60/1
f 11/22/2 27/60/2 28/61/2
f 17/37/5 14/30/5 20/42/5
f 2/4/1 4/9/1 3/8/1
f 4/9/2 8/14/2 7/13/2
f 8/14/3 6/12/3 5/11/3
f 6/12/4 2/5/4 1/2/4
f 7/13/5 5/11/5 1/3/5
f 4/10/6 2/6/6 6/12/6
f 18/39/6 15/32/6 21/45/6
f 24/53/3 22/48/3 12/25/3
f 16/34/1 19/41/1 10/19/1
f 25/54/5 28/62/5 9/16/5
f 13/27/5 12/26/5 27/58/5
f 13/27/5 27/58/5 26/56/5
f 25/54/5 9/16/5 10/20/5
f 13/27/5 26/56/5 25/54/5
f 9/17/5 28/63/5 27/59/5
f 19/41/2 24/53/2 13/28/2
f 22/48/4 16/35/4 9/18/4
f 14/29/3 11/21/3 28/64/3
f 20/43/4 14/29/4 25/55/4
f 17/36/1 20/43/1 26/57/1
f 11/22/2 17/36/2 27/60/2
f 17/37/5 11/23/5 14/30/5
