# Blender 3.3.1
# www.blender.org
mtllib chain.mtl
o cube
v 0.187500 -0.406250 0.065937
v 0.187500 -0.406250 -0.064063
v 0.187500 -0.406250 0.065937
v 0.187500 -0.406250 -0.064063
v -0.203125 -0.406250 -0.064063
v -0.203125 -0.406250 0.065937
v -0.203125 -0.406250 -0.064063
v -0.203125 -0.406250 0.065937
vn -0.0000 -0.0000 -1.0000
vn -0.0000 -0.0000 -0.0000
vn -0.0000 -0.0000 1.0000
vn -0.0000 1.0000 -0.0000
vn -0.0000 -1.0000 -0.0000
vt 0.000000 1.000000
vt 0.437500 1.000000
vt 0.666667 1.000000
vt 0.000000 1.000000
vt 0.125000 1.000000
vt 0.333333 1.000000
vt 0.000000 1.000000
vt 0.437500 1.000000
vt 0.333333 1.000000
vt 0.000000 1.000000
vt 0.125000 1.000000
vt 0.666667 1.000000
vt 0.000000 1.000000
vt 0.437500 1.000000
vt 0.333333 0.000000
vt 0.000000 1.000000
vt 0.666667 0.000000
vt 0.125000 1.000000
vt 0.666667 0.000000
vt 0.437500 1.000000
vt 0.000000 1.000000
vt 0.000000 1.000000
vt 0.125000 1.000000
vt 0.333333 0.000000
s 0
usemtl m_7b7d4699-6d2c-aad5-c32c-9f6071a3a597
f 4/10/1 5/14/1 2/4/1
f 3/7/2 2/5/2 1/1/2
f 8/22/3 1/2/3 6/16/3
f 7/21/2 6/18/2 5/13/2
f 1/3/4 5/15/4 6/17/4
f 4/12/5 8/24/5 7/19/5
f 4/10/1 7/20/1 5/14/1
f 3/7/2 4/11/2 2/5/2
f 8/22/3 3/8/3 1/2/3
f 7/21/2 8/23/2 6/18/2
f 1/3/4 2/6/4 5/15/4
f 4/12/5 3/9/5 8/24/5
