# Blender 3.3.1
# www.blender.org
mtllib gem_base.mtl
o gem_base
v 0.282315 0.655835 -0.282315
v 0.282315 0.655835 -0.282315
v 0.282315 0.655835 -0.282315
v 0.282315 0.655835 -0.282315
v 0.282315 0.655835 -0.282315
v 1.000000 -1.000000 -1.000000
v 1.000000 -1.000000 -1.000000
v 1.000000 -1.000000 -1.000000
v 1.000000 -1.000000 -1.000000
v 0.282315 0.655835 0.282315
v 0.282315 0.655835 0.282315
v 0.282315 0.655835 0.282315
v 0.282315 0.655835 0.282315
v 1.000000 -1.000000 1.000000
v 1.000000 -1.000000 1.000000
v 1.000000 -1.000000 1.000000
v 1.000000 -1.000000 1.000000
v 1.000000 -1.000000 1.000000
v -0.282315 0.655835 -0.282315
v -0.282315 0.655835 -0.282315
v -0.282315 0.655835 -0.282315
v -0.282315 0.655835 -0.282315
v -1.000000 -1.000000 -1.000000
v -1.000000 -1.000000 -1.000000
v -1.000000 -1.000000 -1.000000
v -1.000000 -1.000000 -1.000000
v -1.000000 -1.000000 -1.000000
v -0.282315 0.655835 0.282315
v -0.282315 0.655835 0.282315
v -0.282315 0.655835 0.282315
v -0.282315 0.655835 0.282315
v -0.282315 0.655835 0.282315
v -1.000000 -1.000000 1.000000
v -1.000000 -1.000000 1.000000
v -1.000000 -1.000000 1.000000
v -1.000000 -1.000000 1.000000
vn -0.0000 1.0000 -0.0000
vn -0.0000 0.3977 0.9175
vn -0.9175 0.3977 -0.0000
vn -0.0000 -1.0000 -0.0000
vn 0.9175 0.3977 -0.0000
vn -0.0000 0.3977 -0.9175
vt 0.333333 0.000000
vt 0.333333 0.000000
vt 0.669389 0.997735
vt 0.669389 0.996750
vt 0.669389 0.996750
vt 0.999518 0.589261
vt 1.100000 0.004234
vt 1.100000 0.004234
vt 1.100000 0.003249
vt 0.333333 0.250000
vt 0.669269 0.996398
vt 0.330611 0.997735
vt 0.330611 0.997735
vt 1.099575 0.003602
vt 1.099575 0.003602
vt 0.999518 0.999518
vt 0.999518 0.999518
vt -0.100000 0.004234
vt 0.583333 0.000000
vt 0.669389 0.996750
vt 0.669389 0.996750
vt 0.330611 0.996750
vt 1.100000 0.003249
vt 0.589261 0.589261
vt 0.589261 0.589261
vt -0.100000 0.003249
vt -0.100000 0.003249
vt 0.583333 0.250000
vt 0.583333 0.250000
vt 0.330731 0.996398
vt 0.330731 0.996398
vt 0.330611 0.996750
vt -0.099575 0.003602
vt -0.100000 0.003250
vt -0.100000 0.003250
vt 0.589261 0.999518
s 1
usemtl Материал
f 1/1/1 19/19/1 28/28/1
f 2/2/1 29/29/1 10/10/1
f 14/14/2 11/11/2 30/30/2
f 15/15/2 31/31/2 33/33/2
f 34/34/3 32/32/3 20/20/3
f 35/35/3 21/21/3 23/23/3
f 24/24/4 6/6/4 16/16/4
f 25/25/4 17/17/4 36/36/4
f 7/7/5 3/3/5 12/12/5
f 8/8/5 13/13/5 18/18/5
f 26/26/6 22/22/6 4/4/6
f 27/27/6 5/5/6 9/9/6
