# Blender 3.3.1
# www.blender.org
mtllib hex_caps.mtl
o Hexagon.001
v 1.297500 1.000000 -0.749112
v 0.877889 0.994757 -0.496376
v 1.297500 1.000000 0.749112
v 0.877889 0.994757 0.517323
v 0.000000 0.994757 1.024173
v 0.000000 1.000000 1.498224
v -1.297500 1.000000 0.749112
v -0.877889 0.994757 0.517323
v -0.877889 0.994757 -0.496376
v -1.297500 1.000000 -0.749112
v 0.000000 1.000000 -1.498224
v 0.000000 0.994757 -1.003226
v 0.000000 0.875000 -1.498224
v 0.000000 0.881991 -1.003226
v 1.297500 0.875000 -0.561834
v 1.297500 0.875000 -0.749112
v 0.877889 0.881990 -0.496376
v 1.297500 0.875000 0.749112
v 0.877889 0.881990 0.517323
v 0.000000 0.875000 1.498224
v 0.000000 0.881990 1.024173
v -1.297500 0.875000 0.749112
v -0.877889 0.881990 0.517323
v -1.297500 0.875000 0.561834
v -1.297500 0.875000 -0.749112
v -0.877889 0.881990 -0.496376
v 0.585259 0.994757 0.686273
v -0.585259 0.994757 0.686273
vn -0.5000 -0.0000 -0.8660
vn -1.0000 -0.0000 -0.0000
vn 0.5000 -0.0000 -0.8660
vn 0.5000 -0.0000 0.8660
vn -0.0064 0.9999 -0.0111
vn 0.0082 -0.9999 0.0141
vn -0.0085 -0.9999 -0.0147
vn 1.0000 -0.0000 -0.0000
vn -0.5000 -0.0000 0.8660
vn -0.0061 0.9999 0.0106
vn 0.0064 0.9999 -0.0111
vn 0.0167 -0.9999 -0.0000
vn -0.0000 -1.0000 -0.0000
vn -0.0131 -0.9997 0.0227
vn -0.0102 -0.9998 0.0141
vn -0.0167 -0.9999 -0.0000
vn 0.0141 -0.9996 -0.0244
vn 0.0106 -0.9998 -0.0147
vn 0.0125 0.9999 -0.0000
vn -0.0125 0.9999 -0.0000
vn 0.0061 0.9999 0.0106
vt 0.158037 0.029890
vt 0.265340 0.996253
vt 0.042501 0.474419
vt 0.359032 0.832021
vt 0.730853 0.998453
vt 0.043870 0.445412
vt 0.729436 0.998453
vt 0.174649 0.026163
vt 0.661872 0.830980
vt 0.109521 0.251118
vt 0.066781 0.233674
vt 0.853985 0.513446
vt 0.050450 0.268431
vt 0.998395 0.507843
vt 0.089228 0.280327
vt 0.005092 0.433517
vt 0.717102 0.004938
vt 0.131909 0.008719
vt 0.672021 0.178420
vt 0.000443 0.458474
vt 0.376780 0.175113
vt 0.119259 0.017994
vt 0.315764 0.003639
vt 0.110073 0.204459
vt 0.071295 0.192563
vt -0.004896 0.523910
vt 0.065707 0.231451
vt 0.108170 0.249262
vt 0.190757 0.508409
vt 0.107140 0.205969
vt 0.315765 0.003829
vt 0.072657 0.192204
vt 0.111524 0.248291
vt 0.376780 0.175302
vt 0.064730 0.231832
vt 0.744422 0.052327
vt 0.106559 0.068816
vt 0.717103 0.005128
vt 0.120621 0.017635
vt 0.672021 0.178609
vt -0.000939 0.456988
vt 0.998395 0.508032
vt 0.006453 0.433157
vt 0.131209 0.008732
vt 0.853985 0.513636
vt 0.730853 0.998643
vt 0.051812 0.268072
vt 0.086295 0.281837
vt 0.066081 0.233687
vt 0.109098 0.250948
vt 0.661872 0.831169
vt 0.263923 0.998096
vt 0.040937 0.446922
vt 0.359032 0.832211
vt 0.174226 0.025993
vt 0.236603 0.950898
vt 0.056669 0.389664
vt -0.004896 0.524099
vt 0.155104 0.031400
vt 0.042079 0.474249
vt 0.190757 0.508599
vt 0.130789 0.178972
vt 0.730910 0.719901
vt 0.730910 0.718247
vt 0.088050 0.161528
vt 0.723849 0.275442
s 0
usemtl hex_caps.png
f 11/25/1 25/59/1 10/22/1
f 4/8/2 17/41/2 19/44/2
f 27/62/1 19/44/1 21/49/1
f 23/55/3 28/65/3 5/11/3
f 9/20/4 14/33/4 12/27/4
f 6/14/5 27/63/5 5/12/5
f 25/58/6 13/31/6 14/34/6
f 18/42/7 20/46/7 21/51/7
f 3/6/8 15/37/8 16/39/8
f 6/15/4 18/43/4 3/6/4
f 7/16/9 20/48/9 6/13/9
f 10/22/2 24/57/2 22/53/2
f 9/20/8 23/55/8 26/60/8
f 14/35/9 2/3/9 12/28/9
f 1/1/3 13/32/3 11/24/3
f 1/2/10 11/26/10 12/29/10
f 11/25/1 13/30/1 25/59/1
f 4/8/2 2/3/2 17/41/2
f 21/49/1 5/10/1 27/62/1
f 27/62/1 4/8/1 19/44/1
f 5/11/3 21/50/3 23/55/3
f 23/55/3 8/18/3 28/65/3
f 9/20/4 26/60/4 14/33/4
f 28/66/11 7/17/11 6/14/11
f 6/14/5 3/5/5 27/63/5
f 5/12/11 28/66/11 6/14/11
f 26/61/12 23/54/12 24/56/12
f 13/31/13 16/38/13 15/36/13
f 15/36/14 17/40/14 14/34/14
f 26/61/12 24/56/12 25/58/12
f 13/31/15 15/36/15 14/34/15
f 14/34/6 26/61/6 25/58/6
f 19/45/16 17/40/16 15/36/16
f 20/46/13 22/52/13 24/56/13
f 24/56/17 23/54/17 21/51/17
f 19/45/16 15/36/16 18/42/16
f 20/46/18 24/56/18 21/51/18
f 21/51/7 19/45/7 18/42/7
f 16/39/8 1/1/8 3/6/8
f 3/6/8 18/43/8 15/37/8
f 6/15/4 20/47/4 18/43/4
f 7/16/9 22/53/9 20/48/9
f 22/53/2 7/16/2 10/22/2
f 10/22/2 25/59/2 24/57/2
f 9/20/8 8/18/8 23/55/8
f 14/35/9 17/41/9 2/3/9
f 1/1/3 16/39/3 13/32/3
f 7/17/11 28/66/11 8/19/11
f 7/17/19 8/19/19 9/21/19
f 4/9/5 27/64/5 3/7/5
f 2/4/20 4/9/20 3/7/20
f 10/23/19 7/17/19 9/21/19
f 10/23/21 9/21/21 12/29/21
f 2/4/20 3/7/20 1/2/20
f 11/26/21 10/23/21 12/29/21
f 12/29/10 2/4/10 1/2/10
o Hexagon.002
v 0.000000 0.000000 -1.498224
v 1.297500 0.000000 -0.749112
v 1.297500 -0.000000 0.749112
v 0.000000 -0.000000 1.498224
v -1.297500 -0.000000 0.749112
v -1.297500 0.000000 -0.749112
v 0.000000 0.062500 -1.498224
v 1.297500 0.062500 -0.749112
v 1.297500 0.062500 0.749112
v 0.000000 0.062500 1.498224
v -1.297500 0.062500 0.749112
v -1.297500 0.062500 -0.749112
vn -0.5000 -0.0000 -0.8660
vn 0.5000 -0.0000 -0.8660
vn 1.0000 -0.0000 -0.0000
vn 0.5000 -0.0000 0.8660
vn -0.5000 -0.0000 0.8660
vn -0.0000 -1.0000 -0.0000
vn -0.0000 1.0000 -0.0000
vn -1.0000 -0.0000 -0.0000
vt 0.854648 0.514213
vt 0.006254 0.354929
vt 0.670127 0.178178
vt 0.201158 0.028405
vt 0.376612 0.178642
vt 0.006253 0.354930
vt 0.190371 0.508384
vt 0.200575 0.030495
vt 0.359007 0.834179
vt 0.008219 0.352404
vt 0.010170 0.349146
vt 0.661072 0.831889
vt 0.200574 0.030496
vt 0.036049 0.379219
vt 0.670222 0.178634
vt 0.230953 0.052695
vt 0.854160 0.512729
vt 0.036048 0.379221
vt 0.661876 0.832258
vt 0.230370 0.054785
vt 0.358856 0.833416
vt 0.038014 0.376694
vt 0.190227 0.508754
vt 0.039965 0.373436
vt 0.230370 0.054786
vt 0.377416 0.178059
s 0
usemtl hex_caps.png
f 29/68/22 40/91/22 35/80/22
f 30/70/23 35/80/23 36/82/23
f 37/84/24 30/70/24 36/82/24
f 32/74/25 37/84/25 38/86/25
f 33/76/26 38/86/26 39/88/26
f 29/67/27 31/71/27 33/75/27
f 33/75/27 34/78/27 29/67/27
f 29/67/27 30/69/27 31/71/27
f 31/71/27 32/73/27 33/75/27
f 39/89/28 37/85/28 35/81/28
f 34/79/29 39/90/29 40/91/29
f 29/68/22 34/79/22 40/91/22
f 30/70/23 29/68/23 35/80/23
f 37/84/24 31/72/24 30/70/24
f 32/74/25 31/72/25 37/84/25
f 33/76/26 32/74/26 38/86/26
f 35/81/28 40/92/28 39/89/28
f 39/89/28 38/87/28 37/85/28
f 37/85/28 36/83/28 35/81/28
f 34/79/29 33/77/29 39/90/29
