# Blender 3.3.1
# www.blender.org
mtllib lithographer.mtl
o cube
v -0.500000 -0.650000 -0.437500
v -0.875000 -0.650000 -0.437500
v -0.500000 -1.025000 -0.437500
v -0.875000 -1.025000 -0.437500
v -0.875000 -0.650000 0.437500
v -0.500000 -0.650000 0.437500
v -0.875000 -1.025000 0.437500
v -0.500000 -1.025000 0.437500
vn -1.0000 -0.0000 -0.0000
vn -0.0000 -0.0000 -1.0000
vn 1.0000 -0.0000 -0.0000
vn -0.0000 -0.0000 1.0000
vn -0.0000 1.0000 -0.0000
vn -0.0000 -1.0000 -0.0000
vt 0.625000 0.687500
vt 0.437500 0.687500
vt 0.000000 0.687500
vt 0.000000 0.687500
vt 0.437500 0.687500
vt 0.000000 0.500000
vt 0.625000 0.500000
vt 0.437500 0.500000
vt 0.000000 0.687500
vt 0.437500 0.500000
vt 0.000000 0.500000
vt 0.437500 0.687500
vt 0.625000 0.687500
vt 0.437500 0.500000
vt 0.000000 0.687500
vt 0.437500 0.687500
vt 0.625000 0.500000
vt 0.437500 0.500000
vt 0.000000 0.500000
vt 0.437500 0.500000
vt 0.437500 0.687500
s 0
usemtl m_cc61bab3-0a39-f857-574d-cbd4689dd2c9
f 4/11/1 7/18/1 5/12/1 2/4/1
f 3/7/2 4/10/2 2/5/2 1/1/2
f 8/19/3 3/8/3 1/2/3 6/15/3
f 7/17/4 8/20/4 6/16/4 5/13/4
f 6/16/5 1/3/5 2/6/5 5/14/5
f 7/18/6 4/11/6 3/9/6 8/21/6
o cube.001
v -0.500000 0.412500 -0.375000
v -0.812500 0.412500 -0.375000
v -0.500000 -0.650000 -0.375000
v -0.812500 -0.650000 -0.375000
v -0.812500 0.412500 0.375000
v -0.500000 0.412500 0.375000
v -0.812500 -0.650000 0.375000
v -0.500000 -0.650000 0.375000
vn -1.0000 -0.0000 -0.0000
vn -0.0000 -0.0000 -1.0000
vn 1.0000 -0.0000 -0.0000
vn -0.0000 -0.0000 1.0000
vn -0.0000 1.0000 -0.0000
vn -0.0000 -1.0000 -0.0000
vt 0.218750 0.531250
vt 0.375000 0.531250
vt 0.375000 0.156250
vt 0.000000 0.531250
vt 0.375000 0.531250
vt 0.375000 0.312500
vt 0.218750 0.000000
vt 0.375000 0.000000
vt 0.375000 0.312500
vt 0.000000 0.000000
vt 0.375000 0.000000
vt 0.375000 0.156250
vt 0.375000 0.531250
vt 0.000000 0.531250
vt 0.000000 0.312500
vt 0.000000 0.531250
vt 0.156250 0.531250
vt 0.000000 0.156250
vt 0.375000 0.000000
vt 0.000000 0.000000
vt 0.000000 0.156250
vt 0.000000 0.000000
vt 0.156250 0.000000
vt 0.000000 0.312500
s 0
usemtl m_cc61bab3-0a39-f857-574d-cbd4689dd2c9
f 12/31/7 15/40/7 13/34/7 10/25/7
f 11/28/8 12/32/8 10/26/8 9/22/8
f 16/43/9 11/29/9 9/23/9 14/37/9
f 15/41/10 16/44/10 14/38/10 13/35/10
f 14/39/11 9/24/11 10/27/11 13/36/11
f 15/42/12 12/33/12 11/30/12 16/45/12
o cube.002
v -0.499937 1.100000 -0.437500
v -0.875000 1.100000 -0.437500
v -0.499937 0.412500 -0.437500
v -0.875000 0.412500 -0.437500
v -0.875000 1.100000 0.437500
v -0.499937 1.100000 0.437500
v -0.875000 0.412500 0.437500
v -0.499937 0.412500 0.437500
vn -1.0000 -0.0000 -0.0000
vn -0.0000 -0.0000 -1.0000
vn 1.0000 -0.0000 -0.0000
vn -0.0000 -0.0000 1.0000
vn -0.0000 1.0000 -0.0000
vn -0.0000 -1.0000 -0.0000
vt 0.437500 1.000000
vt 0.437500 0.843750
vt 0.000000 1.000000
vt 0.625000 1.000000
vt 0.437500 1.000000
vt 0.437500 0.656250
vt 0.437500 1.000000
vt 0.000000 0.656250
vt 0.625000 0.656250
vt 0.437500 0.843750
vt 0.437500 1.000000
vt 0.000000 1.000000
vt 0.000000 1.000000
vt 0.625000 1.000000
vt 0.000000 0.843750
vt 0.437500 0.656250
vt 0.000000 0.843750
vt 0.000000 0.656250
vt 0.625000 0.656250
vt 0.000000 1.000000
s 0
usemtl m_cc61bab3-0a39-f857-574d-cbd4689dd2c9
f 20/53/13 23/61/13 21/56/13 18/48/13
f 19/51/14 20/54/14 18/49/14 17/46/14
f 24/63/15 19/51/15 17/46/15 22/58/15
f 23/61/16 24/64/16 22/59/16 21/56/16
f 22/60/17 17/47/17 18/50/17 21/57/17
f 23/62/18 20/55/18 19/52/18 24/65/18
o cube.003
v 0.875000 1.100000 -0.437500
v 0.499938 1.100000 -0.437500
v 0.875000 0.412500 -0.437500
v 0.499938 0.412500 -0.437500
v 0.499938 1.100000 0.437500
v 0.875000 1.100000 0.437500
v 0.499938 0.412500 0.437500
v 0.875000 0.412500 0.437500
vn -1.0000 -0.0000 -0.0000
vn -0.0000 -0.0000 -1.0000
vn 1.0000 -0.0000 -0.0000
vn -0.0000 -0.0000 1.0000
vn -0.0000 1.0000 -0.0000
vn -0.0000 -1.0000 -0.0000
vt 0.437500 1.000000
vt 0.000000 1.000000
vt 0.000000 1.000000
vt 0.625031 1.000000
vt 0.000000 0.812469
vt 0.437500 0.656250
vt 0.000000 0.812469
vt 0.000000 0.656250
vt 0.625031 0.656250
vt 0.000000 1.000000
vt 0.437500 1.000000
vt 0.437500 0.812469
vt 0.000000 1.000000
vt 0.625031 1.000000
vt 0.437500 1.000000
vt 0.437500 0.656250
vt 0.437500 1.000000
vt 0.000000 0.656250
vt 0.625031 0.656250
vt 0.437500 0.812469
s 0
usemtl m_cc61bab3-0a39-f857-574d-cbd4689dd2c9
f 28/73/19 31/81/19 29/76/19 26/68/19
f 27/71/20 28/74/20 26/69/20 25/66/20
f 32/83/21 27/71/21 25/66/21 30/78/21
f 31/81/22 32/84/22 30/79/22 29/76/22
f 30/80/23 25/67/23 26/70/23 29/77/23
f 31/82/24 28/75/24 27/72/24 32/85/24
o cube.004
v 0.812500 0.412500 -0.375000
v 0.500000 0.412500 -0.375000
v 0.812500 -0.650000 -0.375000
v 0.500000 -0.650000 -0.375000
v 0.500000 0.412500 0.375000
v 0.812500 0.412500 0.375000
v 0.500000 -0.650000 0.375000
v 0.812500 -0.650000 0.375000
vn -1.0000 -0.0000 -0.0000
vn -0.0000 -0.0000 -1.0000
vn 1.0000 -0.0000 -0.0000
vn -0.0000 -0.0000 1.0000
vn -0.0000 1.0000 -0.0000
vn -0.0000 -1.0000 -0.0000
vt 0.000000 0.531250
vt 0.375000 0.531250
vt 0.000000 0.312500
vt 0.000000 0.531250
vt 0.156250 0.531250
vt 0.000000 0.156250
vt 0.000000 0.000000
vt 0.375000 0.000000
vt 0.000000 0.156250
vt 0.000000 0.000000
vt 0.156250 0.000000
vt 0.000000 0.312500
vt 0.375000 0.531250
vt 0.218750 0.531250
vt 0.375000 0.156250
vt 0.000000 0.531250
vt 0.375000 0.531250
vt 0.375000 0.312500
vt 0.375000 0.000000
vt 0.218750 0.000000
vt 0.375000 0.312500
vt 0.000000 0.000000
vt 0.375000 0.000000
vt 0.375000 0.156250
s 0
usemtl m_cc61bab3-0a39-f857-574d-cbd4689dd2c9
f 36/95/25 39/104/25 37/98/25 34/89/25
f 35/92/26 36/96/26 34/90/26 33/86/26
f 40/107/27 35/93/27 33/87/27 38/101/27
f 39/105/28 40/108/28 38/102/28 37/99/28
f 38/103/29 33/88/29 34/91/29 37/100/29
f 39/106/30 36/97/30 35/94/30 40/109/30
o cube.005
v 0.875000 -0.650000 -0.437500
v 0.500000 -0.650000 -0.437500
v 0.875000 -1.025000 -0.437500
v 0.500000 -1.025000 -0.437500
v 0.500000 -0.650000 0.437500
v 0.875000 -0.650000 0.437500
v 0.500000 -1.025000 0.437500
v 0.875000 -1.025000 0.437500
vn -1.0000 -0.0000 -0.0000
vn -0.0000 -0.0000 -1.0000
vn 1.0000 -0.0000 -0.0000
vn -0.0000 -0.0000 1.0000
vn -0.0000 1.0000 -0.0000
vn -0.0000 -1.0000 -0.0000
vt 0.437500 0.687500
vt 0.000000 0.687500
vt 0.000000 0.687500
vt 0.625000 0.687500
vt 0.000000 0.500000
vt 0.437500 0.500000
vt 0.000000 0.500000
vt 0.000000 0.500000
vt 0.625000 0.500000
vt 0.000000 0.687500
vt 0.437500 0.687500
vt 0.437500 0.500000
vt 0.000000 0.687500
vt 0.625000 0.687500
vt 0.437500 0.687500
vt 0.437500 0.500000
vt 0.437500 0.687500
vt 0.000000 0.500000
vt 0.625000 0.500000
vt 0.437500 0.500000
s 0
usemtl m_cc61bab3-0a39-f857-574d-cbd4689dd2c9
f 44/117/31 47/125/31 45/120/31 42/112/31
f 43/115/32 44/118/32 42/113/32 41/110/32
f 48/127/33 43/115/33 41/110/33 46/122/33
f 47/125/34 48/128/34 46/123/34 45/120/34
f 46/124/35 41/111/35 42/114/35 45/121/35
f 47/126/36 44/119/36 43/116/36 48/129/36
o cube.006
v 0.500000 1.037500 -0.375000
v -0.500000 1.037500 -0.375000
v 0.500000 0.537500 -0.375000
v -0.500000 0.537500 -0.375000
v -0.500000 1.037500 0.375000
v 0.500000 1.037500 0.375000
v -0.500000 0.537500 0.375000
v 0.500000 0.537500 0.375000
vn -1.0000 -0.0000 -0.0000
vn -0.0000 -0.0000 -1.0000
vn 1.0000 -0.0000 -0.0000
vn -0.0000 -0.0000 1.0000
vn -0.0000 1.0000 -0.0000
vn -0.0000 -1.0000 -0.0000
vt 0.625000 0.500000
vt 1.000000 1.000000
vt 0.625000 1.000000
vt 0.625000 1.000000
vt 0.625000 0.500000
vt 0.875000 0.500000
vt 1.000000 0.750000
vt 0.625000 0.500000
vt 0.625000 0.750000
vt 0.875000 1.000000
vt 0.625000 1.000000
vt 1.000000 1.000000
vt 0.625000 0.500000
vt 1.000000 0.500000
vt 0.625000 1.000000
vt 1.000000 1.000000
vt 1.000000 0.750000
vt 0.875000 0.500000
vt 1.000000 1.000000
vt 0.625000 0.750000
vt 0.875000 1.000000
vt 1.000000 0.500000
s 0
usemtl m_cc61bab3-0a39-f857-574d-cbd4689dd2c9
f 52/138/37 55/146/37 53/141/37 50/133/37
f 51/135/38 52/139/38 50/133/38 49/130/38
f 56/149/39 51/136/39 49/131/39 54/144/39
f 55/147/40 56/150/40 54/144/40 53/142/40
f 54/145/41 49/132/41 50/134/41 53/143/41
f 55/148/42 52/140/42 51/137/42 56/151/42
