# Blender 3.3.1
# www.blender.org
mtllib lithographer3.mtl
o lithographer3
v 0.125000 0.287500 0.125000
v 0.125000 0.287500 -0.125000
v 0.125000 0.162500 0.125000
v 0.125000 0.162500 -0.125000
v -0.125000 0.287500 -0.125000
v -0.125000 0.287500 0.125000
v -0.125000 0.162500 -0.125000
v -0.125000 0.162500 0.125000
vn -0.4083 -0.4082 -0.8165
vn 0.4083 0.4083 -0.8165
vn 0.6667 -0.6667 -0.3333
vn 0.6667 0.6667 0.3333
vn 0.4082 -0.4083 0.8165
vn -0.4083 0.4083 0.8165
vn -0.6667 -0.6667 0.3333
vn -0.6667 0.6667 -0.3333
vt 0.439616 0.062500
vt 0.564616 0.062500
vt 0.984375 0.171875
vt 0.439616 0.062500
vt 0.564616 0.062500
vt 0.953125 0.171875
vt 0.439616 0.000000
vt 0.564616 0.000000
vt 0.875000 0.250000
vt 0.439616 0.000000
vt 0.564616 0.000000
vt 0.968750 0.250000
vt 0.564616 0.062500
vt 0.439616 0.062500
vt 0.953125 0.140625
vt 0.984375 0.140625
vt 0.439616 0.062500
vt 0.564616 0.062500
vt 0.439616 0.000000
vt 0.968750 0.156250
vt 0.564616 0.000000
vt 0.439616 0.000000
vt 0.564616 0.000000
vt 0.875000 0.156250
s 1
usemtl _lithographer.png.001
f 7/21/1 2/4/2 4/10/3
f 4/11/3 1/1/4 3/7/5
f 3/8/5 6/17/6 8/22/7
f 8/23/7 5/14/8 7/19/1
f 1/3/4 5/15/8 6/16/6
f 4/12/3 8/24/7 7/20/1
f 7/21/1 5/13/8 2/4/2
f 4/11/3 2/5/2 1/1/4
f 3/8/5 1/2/4 6/17/6
f 8/23/7 6/18/6 5/14/8
f 1/3/4 2/6/2 5/15/8
f 4/12/3 3/9/5 8/24/7
