# Blender 3.3.1
# www.blender.org
mtllib lithographer1.mtl
o lithographer1
v 0.250000 0.537500 0.250000
v 0.250000 0.537500 -0.250000
v 0.250000 0.412500 0.250000
v 0.250000 0.412500 -0.250000
v -0.250000 0.537500 -0.250000
v -0.250000 0.537500 0.250000
v -0.250000 0.412500 -0.250000
v -0.250000 0.412500 0.250000
vn -0.4082 -0.4082 -0.8165
vn 0.4082 0.4082 -0.8165
vn 0.6667 -0.6667 -0.3333
vn 0.6667 0.6667 0.3333
vn 0.4082 -0.4083 0.8165
vn -0.4082 0.4082 0.8165
vn -0.6667 -0.6667 0.3333
vn -0.6667 0.6667 -0.3333
vt 0.999606 0.499569
vt 0.999097 0.250432
vt 0.875000 0.062500
vt 0.999606 0.499569
vt 0.999097 0.250432
vt 1.000000 0.062500
vt 0.938085 0.499452
vt 0.937698 0.250071
vt 0.609375 0.078125
vt 0.938085 0.499452
vt 0.937698 0.250071
vt 0.484375 0.078125
vt 0.999097 0.250432
vt 0.999606 0.499569
vt 1.000000 0.187500
vt 0.875000 0.187500
vt 0.999606 0.499569
vt 0.999097 0.250432
vt 0.938085 0.499452
vt 0.484375 0.203125
vt 0.937698 0.250071
vt 0.938085 0.499452
vt 0.937698 0.250071
vt 0.609375 0.203125
s 1
usemtl _lithographer.png.003
f 7/21/1 2/4/2 4/10/3
f 4/11/3 1/1/4 3/7/5
f 3/8/5 6/17/6 8/22/7
f 8/23/7 5/14/8 7/19/1
f 1/3/4 5/15/8 6/16/6
f 4/12/3 8/24/7 7/20/1
f 7/21/1 5/13/8 2/4/2
f 4/11/3 2/5/2 1/1/4
f 3/8/5 1/2/4 6/17/6
f 8/23/7 6/18/6 5/14/8
f 1/3/4 2/6/2 5/15/8
f 4/12/3 3/9/5 8/24/7
