# Blender 3.3.1
# www.blender.org
mtllib shackles.mtl
o cube
v 0.550000 -0.312500 0.125000
v 0.550000 -0.312500 -0.171875
v 0.550000 -0.500000 0.125000
v 0.550000 -0.500000 -0.171875
v 0.503125 -0.312500 -0.171875
v 0.503125 -0.312500 0.125000
v 0.503125 -0.500000 -0.171875
v 0.503125 -0.500000 0.125000
vn -0.0000 -0.0000 -1.0000
vn 1.0000 -0.0000 -0.0000
vn -0.0000 -0.0000 1.0000
vn -1.0000 -0.0000 -0.0000
vn -0.0000 1.0000 -0.0000
vn -0.0000 -1.0000 -0.0000
vt 0.062500 0.750000
vt 0.046875 0.958333
vt 0.520833 0.507292
vt 0.000000 0.500000
vt 0.471875 0.750000
vt 0.916667 0.507292
vt 0.062500 0.502083
vt 0.046875 0.770833
vt 0.916667 0.507292
vt 0.000000 0.312500
vt 0.471875 0.502083
vt 0.520833 0.507292
vt 0.046875 0.500000
vt 0.000000 0.229167
vt 0.916667 0.575000
vt 0.520833 0.575000
vt 0.000000 0.958333
vt 0.296875 0.229167
vt 0.000000 0.041667
vt 0.520833 0.575000
vt 0.046875 0.312500
vt 0.000000 0.770833
vt 0.296875 0.041667
vt 0.916667 0.575000
s 0
usemtl m_644b9f78-adea-17ec-7abd-09e4f438785b
f 7/21/1 2/4/1 4/10/1
f 4/11/2 1/1/2 3/7/2
f 3/8/3 6/17/3 8/22/3
f 8/23/4 5/14/4 7/19/4
f 1/3/5 5/15/5 6/16/5
f 4/12/6 8/24/6 7/20/6
f 7/21/1 5/13/1 2/4/1
f 4/11/2 2/5/2 1/1/2
f 3/8/3 1/2/3 6/17/3
f 8/23/4 6/18/4 5/14/4
f 1/3/5 2/6/5 5/15/5
f 4/12/6 3/9/6 8/24/6
o cube.001
v 0.253125 -0.312500 0.171875
v 0.253125 -0.312500 -0.125000
v 0.253125 -0.500000 0.171875
v 0.253125 -0.500000 -0.125000
v 0.206250 -0.312500 -0.125000
v 0.206250 -0.312500 0.171875
v 0.206250 -0.500000 -0.125000
v 0.206250 -0.500000 0.171875
vn -0.0000 -0.0000 -1.0000
vn 1.0000 -0.0000 -0.0000
vn -0.0000 -0.0000 1.0000
vn -1.0000 -0.0000 -0.0000
vn -0.0000 1.0000 -0.0000
vn -0.0000 -1.0000 -0.0000
vt 0.166667 0.750000
vt 0.063542 1.000000
vt 1.000000 1.000000
vt 0.416667 0.916667
vt 0.463542 0.750000
vt 0.578125 1.000000
vt 0.166667 0.562500
vt 0.063542 0.752083
vt 0.578125 1.000000
vt 0.416667 0.729167
vt 0.463542 0.562500
vt 1.000000 1.000000
vt 0.463542 0.916667
vt 0.062500 0.500000
vt 0.578125 0.932292
vt 1.000000 0.932292
vt 0.000000 1.000000
vt 0.463542 0.500000
vt 0.062500 0.250000
vt 1.000000 0.932292
vt 0.463542 0.729167
vt 0.000000 0.752083
vt 0.463542 0.250000
vt 0.578125 0.932292
s 0
usemtl m_644b9f78-adea-17ec-7abd-09e4f438785b
f 15/45/7 10/28/7 12/34/7
f 12/35/8 9/25/8 11/31/8
f 11/32/9 14/41/9 16/46/9
f 16/47/10 13/38/10 15/43/10
f 9/27/11 13/39/11 14/40/11
f 12/36/12 16/48/12 15/44/12
f 15/45/7 13/37/7 10/28/7
f 12/35/8 10/29/8 9/25/8
f 11/32/9 9/26/9 14/41/9
f 16/47/10 14/42/10 13/38/10
f 9/27/11 10/30/11 13/39/11
f 12/36/12 11/33/12 16/48/12
o cube.002
v 0.503125 -0.312500 -0.125000
v 0.503125 -0.312500 -0.171875
v 0.503125 -0.500000 -0.125000
v 0.503125 -0.500000 -0.171875
v 0.206250 -0.312500 -0.171875
v 0.206250 -0.312500 -0.125000
v 0.206250 -0.500000 -0.171875
v 0.206250 -0.500000 -0.125000
vn -0.0000 -0.0000 -1.0000
vn 1.0000 -0.0000 -0.0000
vn -0.0000 -0.0000 1.0000
vn -1.0000 -0.0000 -0.0000
vn -0.0000 1.0000 -0.0000
vn -0.0000 -1.0000 -0.0000
vt 0.000000 0.666667
vt 0.296875 0.833333
vt 0.929167 0.513542
vt 0.062500 0.502083
vt 0.046875 0.666667
vt 0.991667 0.513542
vt 0.000000 0.479167
vt 0.296875 0.645833
vt 0.991667 0.513542
vt 0.062500 0.252083
vt 0.046875 0.479167
vt 0.929167 0.513542
vt 0.463542 0.502083
vt 0.000000 0.229167
vt 0.991667 0.914583
vt 0.929167 0.914583
vt 0.000000 0.833333
vt 0.046875 0.229167
vt 0.000000 0.041667
vt 0.929167 0.914583
vt 0.463542 0.252083
vt 0.000000 0.645833
vt 0.046875 0.041667
vt 0.991667 0.914583
s 0
usemtl m_644b9f78-adea-17ec-7abd-09e4f438785b
f 23/69/13 18/52/13 20/58/13
f 20/59/14 17/49/14 19/55/14
f 19/56/15 22/65/15 24/70/15
f 24/71/16 21/62/16 23/67/16
f 17/51/17 21/63/17 22/64/17
f 20/60/18 24/72/18 23/68/18
f 23/69/13 21/61/13 18/52/13
f 20/59/14 18/53/14 17/49/14
f 19/56/15 17/50/15 22/65/15
f 24/71/16 22/66/16 21/62/16
f 17/51/17 18/54/17 21/63/17
f 20/60/18 19/57/18 24/72/18
o cube.003
v 0.550000 -0.312500 0.171875
v 0.550000 -0.312500 0.125000
v 0.550000 -0.500000 0.171875
v 0.550000 -0.500000 0.125000
v 0.253125 -0.312500 0.125000
v 0.253125 -0.312500 0.171875
v 0.253125 -0.500000 0.125000
v 0.253125 -0.500000 0.171875
vn -0.0000 -0.0000 -1.0000
vn 1.0000 -0.0000 -0.0000
vn -0.0000 -0.0000 1.0000
vn -1.0000 -0.0000 -0.0000
vn -0.0000 1.0000 -0.0000
vn -0.0000 -1.0000 -0.0000
vt 0.000000 0.750000
vt 0.479167 1.000000
vt 0.567708 1.000000
vt 0.083333 0.229167
vt 0.062500 0.750000
vt 0.500000 1.000000
vt 0.000000 0.500000
vt 0.479167 0.750000
vt 0.500000 1.000000
vt 0.083333 0.000000
vt 0.062500 0.500000
vt 0.567708 1.000000
vt 0.484375 0.229167
vt 0.500000 0.562500
vt 0.500000 0.578125
vt 0.567708 0.578125
vt 0.062500 1.000000
vt 0.546875 0.562500
vt 0.500000 0.375000
vt 0.567708 0.578125
vt 0.484375 0.000000
vt 0.062500 0.750000
vt 0.546875 0.375000
vt 0.500000 0.578125
s 0
usemtl m_644b9f78-adea-17ec-7abd-09e4f438785b
f 31/93/19 26/76/19 28/82/19
f 28/83/20 25/73/20 27/79/20
f 27/80/21 30/89/21 32/94/21
f 32/95/22 29/86/22 31/91/22
f 25/75/23 29/87/23 30/88/23
f 28/84/24 32/96/24 31/92/24
f 31/93/19 29/85/19 26/76/19
f 28/83/20 26/77/20 25/73/20
f 27/80/21 25/74/21 30/89/21
f 32/95/22 30/90/22 29/86/22
f 25/75/23 26/78/23 29/87/23
f 28/84/24 27/81/24 32/96/24
o cube.004
v -0.109375 -0.343750 -0.000000
v -0.109375 -0.343750 -0.000000
v -0.109375 -0.468750 -0.000000
v -0.109375 -0.468750 -0.000000
v -0.234375 -0.343750 -0.000000
v -0.234375 -0.343750 -0.000000
v -0.234375 -0.468750 -0.000000
v -0.234375 -0.468750 -0.000000
vn -0.0000 -0.0000 -1.0000
vn -0.0000 1.0000 -0.0000
vn 1.0000 -0.0000 -0.0000
vn -0.0000 -0.0000 1.0000
vn -1.0000 -0.0000 -0.0000
vn -0.0000 -1.0000 -0.0000
vt 1.000000 0.000000
vt 0.000000 1.000000
vt 0.750000 0.000000
vt 0.000000 1.000000
vt 0.000000 0.812500
vt 0.750000 0.000000
vt 0.000000 1.000000
vt 1.000000 0.000000
vt 0.000000 0.812500
vt 0.000000 1.000000
vt 0.000000 1.000000
vt 0.437500 1.000000
vt 0.750000 0.250000
vt 1.000000 0.250000
vt 0.000000 1.000000
vt 0.437500 1.000000
vt 1.000000 0.250000
vt 0.000000 0.812500
vt 0.437500 1.000000
vt 0.750000 0.250000
vt 0.437500 1.000000
vt 0.000000 0.812500
s 0
usemtl m_644b9f78-adea-17ec-7abd-09e4f438785b
f 39/113/25 34/99/25 36/104/25
f 35/101/26 34/100/25 33/98/27
f 35/102/28 38/110/28 40/116/28
f 39/114/26 38/111/25 37/107/29
f 38/112/26 34/100/29 37/108/25
f 39/115/30 35/103/29 40/117/25
f 39/113/25 37/109/25 34/99/25
f 35/101/25 36/105/27 34/100/30
f 35/102/28 33/97/28 38/110/28
f 39/114/25 40/118/29 38/111/30
f 38/112/27 33/98/25 34/100/26
f 39/115/27 36/106/25 35/103/30
o cube.005
v 0.218750 -0.343750 -0.000000
v 0.218750 -0.343750 -0.000000
v 0.218750 -0.468750 -0.000000
v 0.218750 -0.468750 -0.000000
v 0.093750 -0.343750 -0.000000
v 0.093750 -0.343750 -0.000000
v 0.093750 -0.468750 -0.000000
v 0.093750 -0.468750 -0.000000
vn -0.0000 -0.0000 -1.0000
vn -0.0000 1.0000 -0.0000
vn 1.0000 -0.0000 -0.0000
vn -0.0000 -0.0000 1.0000
vn -1.0000 -0.0000 -0.0000
vn -0.0000 -1.0000 -0.0000
vt 0.000000 1.000000
vt 0.750000 0.250000
vt 0.437500 1.000000
vt 1.000000 0.250000
vt 0.000000 1.000000
vt 0.437500 1.000000
vt 0.000000 0.812500
vt 1.000000 0.250000
vt 0.437500 1.000000
vt 0.750000 0.250000
vt 0.000000 0.812500
vt 0.437500 1.000000
vt 0.000000 1.000000
vt 1.000000 0.000000
vt 0.750000 0.000000
vt 0.000000 1.000000
vt 0.750000 0.000000
vt 0.000000 0.812500
vt 0.000000 1.000000
vt 1.000000 0.000000
vt 0.000000 1.000000
vt 0.000000 0.812500
s 0
usemtl m_644b9f78-adea-17ec-7abd-09e4f438785b
f 47/135/31 42/122/31 44/128/31
f 43/125/32 42/123/31 41/119/33
f 43/126/34 46/133/34 48/138/34
f 47/136/32 46/134/31 45/131/35
f 46/134/32 42/124/35 45/131/31
f 47/137/36 43/127/35 48/139/31
f 47/135/31 45/132/31 42/122/31
f 43/125/31 44/129/33 42/123/36
f 43/126/34 41/120/34 46/133/34
f 47/136/31 48/140/35 46/134/36
f 46/134/33 41/121/31 42/124/32
f 47/137/33 44/130/31 43/127/36
o cube.006
v -0.515625 -0.312500 0.168750
v -0.515625 -0.312500 -0.128125
v -0.515625 -0.500000 0.168750
v -0.515625 -0.500000 -0.128125
v -0.562500 -0.312500 -0.128125
v -0.562500 -0.312500 0.168750
v -0.562500 -0.500000 -0.128125
v -0.562500 -0.500000 0.168750
vn -0.0000 -0.0000 -1.0000
vn 1.0000 -0.0000 -0.0000
vn -0.0000 -0.0000 1.0000
vn -1.0000 -0.0000 -0.0000
vn -0.0000 1.0000 -0.0000
vn -0.0000 -1.0000 -0.0000
vt 0.000000 0.833333
vt 0.046875 0.229167
vt 0.927083 0.916667
vt 0.000000 0.666667
vt 0.296875 0.833333
vt 0.927083 0.515625
vt 0.000000 0.645833
vt 0.046875 0.041667
vt 0.994792 0.916667
vt 0.000000 0.479167
vt 0.296875 0.645833
vt 0.994792 0.515625
vt 0.046875 0.666667
vt 0.062500 0.502083
vt 0.994792 0.515625
vt 0.994792 0.916667
vt 0.000000 0.229167
vt 0.463542 0.502083
vt 0.062500 0.252083
vt 0.927083 0.515625
vt 0.046875 0.479167
vt 0.000000 0.041667
vt 0.463542 0.252083
vt 0.927083 0.916667
s 0
usemtl m_644b9f78-adea-17ec-7abd-09e4f438785b
f 55/161/37 50/144/37 52/150/37
f 52/151/38 49/141/38 51/147/38
f 51/148/39 54/157/39 56/162/39
f 56/163/40 53/154/40 55/159/40
f 49/143/41 53/155/41 54/156/41
f 52/152/42 56/164/42 55/160/42
f 55/161/37 53/153/37 50/144/37
f 52/151/38 50/145/38 49/141/38
f 51/148/39 49/142/39 54/157/39
f 56/163/40 54/158/40 53/154/40
f 49/143/41 50/146/41 53/155/41
f 52/152/42 51/149/42 56/164/42
o cube.007
v -0.218750 -0.312500 0.168750
v -0.218750 -0.312500 0.121875
v -0.218750 -0.500000 0.168750
v -0.218750 -0.500000 0.121875
v -0.515625 -0.312500 0.121875
v -0.515625 -0.312500 0.168750
v -0.515625 -0.500000 0.121875
v -0.515625 -0.500000 0.168750
vn -0.0000 -0.0000 -1.0000
vn 1.0000 -0.0000 -0.0000
vn -0.0000 -0.0000 1.0000
vn -1.0000 -0.0000 -0.0000
vn -0.0000 1.0000 -0.0000
vn -0.0000 -1.0000 -0.0000
vt 0.000000 1.000000
vt 0.463542 0.500000
vt 1.000000 0.932292
vt 0.166667 0.750000
vt 0.063542 1.000000
vt 1.000000 1.000000
vt 0.000000 0.752083
vt 0.463542 0.250000
vt 0.578125 0.932292
vt 0.166667 0.562500
vt 0.063542 0.752083
vt 0.578125 1.000000
vt 0.463542 0.750000
vt 0.416667 0.916667
vt 0.578125 1.000000
vt 0.578125 0.932292
vt 0.062500 0.500000
vt 0.463542 0.916667
vt 0.416667 0.729167
vt 1.000000 1.000000
vt 0.463542 0.562500
vt 0.062500 0.250000
vt 0.463542 0.729167
vt 1.000000 0.932292
s 0
usemtl m_644b9f78-adea-17ec-7abd-09e4f438785b
f 63/185/43 58/168/43 60/174/43
f 60/175/44 57/165/44 59/171/44
f 59/172/45 62/181/45 64/186/45
f 64/187/46 61/178/46 63/183/46
f 57/167/47 61/179/47 62/180/47
f 60/176/48 64/188/48 63/184/48
f 63/185/43 61/177/43 58/168/43
f 60/175/44 58/169/44 57/165/44
f 59/172/45 57/166/45 62/181/45
f 64/187/46 62/182/46 61/178/46
f 57/167/47 58/170/47 61/179/47
f 60/176/48 59/173/48 64/188/48
o cube.008
v -0.218750 -0.312500 0.121875
v -0.218750 -0.312500 -0.175000
v -0.218750 -0.500000 0.121875
v -0.218750 -0.500000 -0.175000
v -0.265625 -0.312500 -0.175000
v -0.265625 -0.312500 0.121875
v -0.265625 -0.500000 -0.175000
v -0.265625 -0.500000 0.121875
vn -0.0000 -0.0000 -1.0000
vn 1.0000 -0.0000 -0.0000
vn -0.0000 -0.0000 1.0000
vn -1.0000 -0.0000 -0.0000
vn -0.0000 1.0000 -0.0000
vn -0.0000 -1.0000 -0.0000
vt 0.062500 1.000000
vt 0.546875 0.562500
vt 0.567708 0.578125
vt 0.000000 0.750000
vt 0.479167 1.000000
vt 0.567708 1.000000
vt 0.062500 0.750000
vt 0.546875 0.375000
vt 0.500000 0.578125
vt 0.000000 0.500000
vt 0.479167 0.750000
vt 0.500000 1.000000
vt 0.062500 0.750000
vt 0.083333 0.229167
vt 0.500000 1.000000
vt 0.500000 0.578125
vt 0.500000 0.562500
vt 0.484375 0.229167
vt 0.083333 0.000000
vt 0.567708 1.000000
vt 0.062500 0.500000
vt 0.500000 0.375000
vt 0.484375 0.000000
vt 0.567708 0.578125
s 0
usemtl m_644b9f78-adea-17ec-7abd-09e4f438785b
f 71/209/49 66/192/49 68/198/49
f 68/199/50 65/189/50 67/195/50
f 67/196/51 70/205/51 72/210/51
f 72/211/52 69/202/52 71/207/52
f 65/191/53 69/203/53 70/204/53
f 68/200/54 72/212/54 71/208/54
f 71/209/49 69/201/49 66/192/49
f 68/199/50 66/193/50 65/189/50
f 67/196/51 65/190/51 70/205/51
f 72/211/52 70/206/52 69/202/52
f 65/191/53 66/194/53 69/203/53
f 68/200/54 67/197/54 72/212/54
o cube.009
v -0.265625 -0.312500 -0.128125
v -0.265625 -0.312500 -0.175000
v -0.265625 -0.500000 -0.128125
v -0.265625 -0.500000 -0.175000
v -0.562500 -0.312500 -0.175000
v -0.562500 -0.312500 -0.128125
v -0.562500 -0.500000 -0.175000
v -0.562500 -0.500000 -0.128125
vn -0.0000 -0.0000 -1.0000
vn 1.0000 -0.0000 -0.0000
vn -0.0000 -0.0000 1.0000
vn -1.0000 -0.0000 -0.0000
vn -0.0000 1.0000 -0.0000
vn -0.0000 -1.0000 -0.0000
vt 0.000000 0.958333
vt 0.296875 0.229167
vt 0.520833 0.575000
vt 0.062500 0.750000
vt 0.046875 0.958333
vt 0.520833 0.507292
vt 0.000000 0.770833
vt 0.296875 0.041667
vt 0.916667 0.575000
vt 0.062500 0.502083
vt 0.046875 0.770833
vt 0.916667 0.507292
vt 0.471875 0.750000
vt 0.000000 0.500000
vt 0.916667 0.507292
vt 0.916667 0.575000
vt 0.000000 0.229167
vt 0.046875 0.500000
vt 0.000000 0.312500
vt 0.520833 0.507292
vt 0.471875 0.502083
vt 0.000000 0.041667
vt 0.046875 0.312500
vt 0.520833 0.575000
s 0
usemtl m_644b9f78-adea-17ec-7abd-09e4f438785b
f 79/233/55 74/216/55 76/222/55
f 76/223/56 73/213/56 75/219/56
f 75/220/57 78/229/57 80/234/57
f 80/235/58 77/226/58 79/231/58
f 73/215/59 77/227/59 78/228/59
f 76/224/60 80/236/60 79/232/60
f 79/233/55 77/225/55 74/216/55
f 76/223/56 74/217/56 73/213/56
f 75/220/57 73/214/57 78/229/57
f 80/235/58 78/230/58 77/226/58
f 73/215/59 74/218/59 77/227/59
f 76/224/60 75/221/60 80/236/60
