# Blender 3.3.1
# www.blender.org
mtllib БезКрышки.mtl
o Cube.013
v -1.236699 -0.060359 -0.040000
v -1.276699 -0.129641 -0.040000
v -1.236699 -0.060359 0.040000
v -1.276699 -0.129641 0.040000
v -1.323302 -0.010359 -0.040000
v -1.363302 -0.079641 -0.040000
v -1.323302 -0.010359 0.040000
v -1.363302 -0.079641 0.040000
v -0.099999 0.150000 -0.150000
v -0.099999 -0.150000 -0.150000
v -0.099999 0.150000 0.150000
v -0.099999 -0.150000 0.150000
v -0.800000 0.150000 -0.150000
v -0.800000 -0.150000 -0.150000
v -0.800000 0.150000 0.150000
v -0.800000 -0.150000 0.150000
v -0.799704 0.150057 -0.150000
v -0.598783 -0.050991 -0.150000
v -0.799704 0.150057 0.150000
v -0.598783 -0.050991 0.150000
v -1.503217 -0.553009 -0.150000
v -1.302296 -0.754057 -0.150000
v -1.503217 -0.553009 0.150000
v -1.302296 -0.754057 0.150000
v -1.534724 -0.535211 -0.180000
v -1.280166 -0.789769 -0.180000
v -1.534724 -0.535211 0.180000
v -1.280166 -0.789769 0.180000
v -1.662004 -0.662491 -0.180000
v -1.407446 -0.917049 -0.180000
v -1.662004 -0.662491 0.180000
v -1.407446 -0.917049 0.180000
v -1.637922 -0.663675 -0.160000
v -1.411648 -0.889949 -0.160000
v -1.637922 -0.663675 0.160000
v -1.411648 -0.889949 0.160000
v -1.765202 -0.790955 -0.160000
v -1.538928 -1.017229 -0.160000
v -1.765202 -0.790955 0.160000
v -1.538928 -1.017229 0.160000
v -0.040000 0.170000 -0.170000
v -0.040000 -0.170000 -0.170000
v -0.040000 0.170000 0.170000
v -0.040000 -0.170000 0.170000
v -0.220001 0.170000 -0.170000
v -0.220001 -0.170000 -0.170000
v -0.220001 0.170000 0.170000
v -0.220001 -0.170000 0.170000
v -0.619211 -0.262776 -0.170000
v -0.789211 -0.557225 -0.170000
v -0.619211 -0.262776 0.170000
v -0.789211 -0.557225 0.170000
v -1.190788 0.067225 -0.170000
v -1.360788 -0.227224 -0.170000
v -1.190788 0.067225 0.170000
v -1.360788 -0.227224 0.170000
v -0.173628 -0.157119 -0.120000
v -0.256979 -0.629827 -0.120000
v -0.173628 -0.157119 0.120000
v -0.256979 -0.629827 0.120000
v -0.213021 -0.150173 -0.120000
v -0.296372 -0.622881 -0.120000
v -0.213021 -0.150173 0.120000
v -0.296372 -0.622881 0.120000
v -0.717195 -0.891982 -0.120000
v -1.422765 -0.916621 -0.120000
v -0.717195 -0.891982 0.120000
v -1.422765 -0.916621 0.120000
v -0.718591 -0.852010 -0.120000
v -1.424161 -0.876649 -0.120000
v -0.718591 -0.852010 0.120000
v -1.424161 -0.876649 0.120000
v -0.230000 -0.250000 -0.070000
v -0.230000 -0.390000 -0.070000
v -0.230000 -0.250000 0.070000
v -0.230000 -0.390000 0.070000
v -0.470001 -0.250000 -0.070000
v -0.470000 -0.390000 -0.070000
v -0.470001 -0.250000 0.070000
v -0.470000 -0.390000 0.070000
v -0.258527 -0.628825 -0.120000
v -0.715796 -0.892830 -0.120000
v -0.258527 -0.628825 0.120000
v -0.715796 -0.892830 0.120000
v -0.280574 -0.590638 -0.120000
v -0.737843 -0.854643 -0.120000
v -0.280574 -0.590638 0.120000
v -0.737843 -0.854643 0.120000
v 0.660001 0.120000 -0.120000
v 0.660000 -0.120000 -0.120000
v 0.660001 0.120000 0.120000
v 0.660000 -0.120000 0.120000
v -0.040000 0.120000 -0.120000
v -0.040001 -0.120000 -0.120000
v -0.040000 0.120000 0.120000
v -0.040001 -0.120000 0.120000
v 3.090000 0.008410 0.000000
v 3.090000 0.000000 -0.009201
v 3.090000 0.000000 0.008227
v 3.090000 -0.008221 0.000000
v 0.650000 0.042426 0.000000
v 0.650000 0.000000 -0.042426
v 0.650000 0.000000 0.042426
v 0.650000 -0.042426 0.000000
v -1.310550 0.164545 -0.190000
v -1.500550 -0.164545 -0.190000
v -1.310550 0.164545 0.190000
v -1.500550 -0.164545 0.190000
v -1.899448 0.504545 -0.190000
v -2.089448 0.175456 -0.190000
v -1.899448 0.504545 0.190000
v -2.089448 0.175456 0.190000
v -1.226699 0.128205 -0.200000
v -1.426699 -0.218205 -0.200000
v -1.226699 0.128205 0.200000
v -1.426699 -0.218205 0.200000
v -1.313302 0.178205 -0.200000
v -1.513302 -0.168205 -0.200000
v -1.313302 0.178205 0.200000
v -1.513302 -0.168205 0.200000
v -0.312229 -0.369411 -0.030000
v -0.439014 -0.641303 -0.030000
v -0.312229 -0.369411 0.030000
v -0.439014 -0.641303 0.030000
v -0.420986 -0.318697 -0.030000
v -0.547771 -0.590589 -0.030000
v -0.420986 -0.318697 0.030000
v -0.547771 -0.590589 0.030000
v -0.439582 -0.641133 -0.030000
v -0.729360 -0.718778 -0.030000
v -0.439582 -0.641133 0.030000
v -0.729360 -0.718778 0.030000
v -0.470640 -0.525222 -0.030000
v -0.760418 -0.602867 -0.030000
v -0.470640 -0.525222 0.030000
v -0.760418 -0.602867 0.030000
v -0.850844 -0.846639 -0.030000
v -0.761919 -0.602319 -0.030000
v -0.850844 -0.846639 0.030000
v -0.761919 -0.602319 0.030000
v -0.738081 -0.887681 -0.030000
v -0.649156 -0.643361 -0.030000
v -0.738081 -0.887681 0.030000
v -0.649156 -0.643361 0.030000
v -0.450096 -0.532679 -0.020000
v -0.470096 -0.567320 -0.020000
v -0.450096 -0.532679 0.020000
v -0.470096 -0.567320 0.020000
v -0.709904 -0.382679 -0.020000
v -0.729904 -0.417320 -0.020000
v -0.709904 -0.382679 0.020000
v -0.729904 -0.417320 0.020000
vn 0.5000 0.8660 -0.0000
vn -0.0000 -0.0000 1.0000
vn -0.8660 0.5000 -0.0000
vn -0.5000 -0.8660 -0.0000
vn 0.8660 -0.5000 -0.0000
vn -0.0000 -0.0000 -1.0000
vn -0.0000 1.0000 -0.0000
vn -1.0000 -0.0000 -0.0000
vn -0.0000 -1.0000 -0.0000
vn 1.0000 -0.0000 -0.0000
vn -0.7069 0.7073 -0.0000
vn -0.7073 -0.7069 -0.0000
vn 0.7069 -0.7073 -0.0000
vn 0.7073 0.7069 -0.0000
vn -0.7071 0.7071 -0.0000
vn -0.7071 -0.7071 -0.0000
vn 0.7071 -0.7071 -0.0000
vn 0.7071 0.7071 -0.0000
vn 0.1736 0.9848 -0.0000
vn -0.9848 0.1736 -0.0000
vn -0.1736 -0.9848 -0.0000
vn 0.9848 -0.1736 -0.0000
vn 0.9994 0.0349 -0.0000
vn -0.0349 0.9994 -0.0000
vn -0.9994 -0.0349 -0.0000
vn 0.0349 -0.9994 -0.0000
vn 0.8660 0.5000 -0.0000
vn -0.5000 0.8660 -0.0000
vn -0.8660 -0.5000 -0.0000
vn 0.5000 -0.8660 -0.0000
vn 0.0099 0.7058 0.7083
vn 0.0099 -0.7071 0.7070
vn 0.0098 -0.7138 -0.7003
vn 0.0097 0.7125 -0.7016
vn 0.4226 0.9063 -0.0000
vn -0.9063 0.4226 -0.0000
vn -0.4226 -0.9063 -0.0000
vn 0.9063 -0.4226 -0.0000
vn 0.9659 0.2588 -0.0000
vn -0.2588 0.9659 -0.0000
vn -0.9659 -0.2588 -0.0000
vn 0.2588 -0.9659 -0.0000
vn -0.3420 -0.9397 -0.0000
vn 0.9397 -0.3420 -0.0000
vn 0.3420 0.9397 -0.0000
vn -0.9397 0.3420 -0.0000
vt 0.749659 0.468378
vt 0.719077 0.468339
vt 0.749205 0.438362
vt 0.749435 0.468489
vt 0.719384 0.438457
vt 0.749351 0.438496
vt 0.749736 0.468493
vt 0.719328 0.438453
vt 0.749428 0.438611
vt 0.749512 0.468244
vt 0.749127 0.438607
vt 0.719165 0.468224
vt 0.719617 0.438208
vt 0.749574 0.468493
vt 0.749372 0.438362
vt 0.719326 0.438208
vt 0.749266 0.438611
vt 0.719473 0.438342
vt 0.719239 0.468339
vt 0.719310 0.468090
vt 0.719546 0.438457
vt 0.749679 0.468244
vt 0.719019 0.468090
vt 0.498088 0.001296
vt 0.498639 0.501445
vt 0.498972 0.499261
vt 0.251802 0.001354
vt 0.252759 0.500214
vt 0.251375 0.498345
vt 0.251208 0.001806
vt 0.498740 0.001281
vt 0.497408 0.747807
vt 0.251235 0.001544
vt 0.498682 0.000845
vt 0.253990 0.748422
vt 0.499183 0.499586
vt 0.252848 0.500195
vt 0.498264 0.001035
vt 0.498789 0.500810
vt 0.250867 0.499135
vt 0.251535 0.001403
vt 0.250272 0.499586
vt 0.499060 0.499507
vt 0.254078 0.748402
vt 0.251075 0.498486
vt 0.498789 0.747172
vt 0.499777 0.499135
vt 0.252565 0.496422
vt 0.497487 0.499706
vt 0.498462 0.498516
vt 0.497478 0.498456
vt 0.252226 0.499706
vt 0.252235 0.498731
vt 0.497149 0.498698
vt 0.496562 0.002547
vt 0.498889 0.748789
vt 0.251323 0.000932
vt 0.252894 0.496180
vt 0.251690 0.749177
vt 0.251415 0.001213
vt 0.499018 0.749271
vt 0.496813 0.002754
vt 0.251819 0.749658
vt 0.498220 0.002586
vt 0.251086 0.001213
vt 0.497891 0.003074
vt 0.497723 0.497822
vt 0.497308 0.499573
vt 0.252473 0.498448
vt 0.252047 0.499573
vt 0.251744 0.000725
vt 0.000926 0.001548
vt 0.000336 0.750425
vt 0.249504 0.000366
vt 0.001783 0.499524
vt 0.248226 0.748960
vt 0.248901 0.498274
vt 0.001658 0.499482
vt 0.248741 0.498226
vt 0.000824 0.499806
vt 0.249538 0.000320
vt 0.001051 0.001590
vt 0.247738 0.497852
vt 0.249583 0.000328
vt 0.001856 0.499806
vt 0.000914 0.001712
vt 0.248770 0.497852
vt 0.249048 0.498547
vt 0.001763 0.499418
vt 0.249173 0.498506
vt 0.001797 0.499229
vt 0.001368 0.750425
vt 0.000948 0.001522
vt 0.249258 0.748960
vt 0.249458 0.000369
vt 0.000705 0.000110
vt 0.003249 0.748460
vt 0.249605 0.000481
vt 0.001284 0.500778
vt 0.248553 0.749436
vt 0.249851 0.499006
vt 0.000767 0.500462
vt 0.249561 0.499092
vt 0.001784 0.503823
vt 0.249327 0.000413
vt 0.001221 0.000425
vt 0.248553 0.499916
vt 0.248959 0.000110
vt 0.002401 0.503960
vt 0.000760 0.000067
vt 0.249169 0.500054
vt 0.249856 0.499536
vt 0.001209 0.500223
vt 0.249204 0.499608
vt 0.000919 0.500359
vt 0.003866 0.748597
vt 0.000470 0.000204
vt 0.249169 0.749574
vt 0.249611 0.000038
vt 0.248957 0.498767
vt 0.003463 0.750885
vt 0.247061 0.002305
vt 0.247481 0.002886
vt 0.247411 0.747956
vt 0.248098 0.499206
vt 0.247727 0.002844
vt 0.248645 0.499750
vt 0.002487 0.501304
vt 0.247609 0.002849
vt 0.248712 0.498809
vt 0.248388 0.500816
vt 0.003294 0.499998
vt 0.002378 0.500233
vt 0.002992 0.001508
vt 0.248486 0.499744
vt 0.003049 0.001656
vt 0.002604 0.500288
vt 0.003294 0.001614
vt 0.002764 0.499966
vt 0.003355 0.749814
vt 0.002376 0.001186
vt 0.248974 0.747861
vt 0.003049 0.500040
vt 0.748442 0.001625
vt 0.747143 0.749350
vt 0.502006 0.000315
vt 0.501322 0.001825
vt 0.750076 0.499224
vt 0.749127 0.000061
vt 0.501322 0.001879
vt 0.501738 0.498233
vt 0.502404 0.748610
vt 0.748859 0.497979
vt 0.748442 0.001571
vt 0.500722 0.499116
vt 0.748442 0.499374
vt 0.502406 0.748492
vt 0.502006 0.498089
vt 0.500761 0.499190
vt 0.501322 0.499574
vt 0.749127 0.497835
vt 0.501322 0.499628
vt 0.501738 0.000460
vt 0.748683 0.749270
vt 0.748859 0.000206
vt 0.749957 0.499388
vt 0.748442 0.499320
vt 0.248568 0.499740
vt 0.248984 0.500328
vt 0.249020 0.001241
vt 0.248543 0.000752
vt 0.248984 0.001226
vt 0.249020 0.499943
vt 0.248568 0.000954
vt 0.249060 0.499410
vt 0.000464 0.500328
vt 0.249060 0.000708
vt 0.248543 0.499050
vt 0.000464 0.001226
vt 0.219229 0.499740
vt 0.000399 0.499900
vt 0.218899 0.001061
vt 0.000399 0.001415
vt 0.219204 0.000752
vt 0.218899 0.499763
vt 0.219229 0.000954
vt 0.218939 0.499590
vt 0.248919 0.499900
vt 0.218939 0.000888
vt 0.248919 0.001416
vt 0.219204 0.499050
vt 0.247924 0.498660
vt 0.001482 0.001009
vt 0.217949 0.498776
vt 0.218437 0.498813
vt 0.001482 0.499100
vt 0.217949 0.001167
vt 0.247924 0.001095
vt 0.217901 0.001462
vt 0.247086 0.001009
vt 0.217901 0.499072
vt 0.218437 0.001248
vt 0.247086 0.499100
vt 0.218844 0.498660
vt 0.246624 0.001004
vt 0.248346 0.498972
vt 0.246624 0.499095
vt 0.248395 0.498813
vt 0.248346 0.001363
vt 0.218844 0.001095
vt 0.248298 0.001881
vt 0.001020 0.001004
vt 0.248298 0.499490
vt 0.001020 0.499095
vt 0.248395 0.001248
vt 0.747718 0.001432
vt 0.748757 0.749433
vt 0.747719 0.498295
vt 0.503220 0.001051
vt 0.748778 0.498945
vt 0.503131 0.498272
vt 0.502984 0.001432
vt 0.747855 0.001096
vt 0.501199 0.749002
vt 0.502876 0.001266
vt 0.747954 0.001051
vt 0.501708 0.499490
vt 0.747718 0.498648
vt 0.501210 0.749236
vt 0.747867 0.001213
vt 0.501906 0.499724
vt 0.503220 0.498268
vt 0.503131 0.001056
vt 0.502983 0.498648
vt 0.747708 0.498421
vt 0.748769 0.749667
vt 0.502876 0.498481
vt 0.748976 0.499178
vt 0.747954 0.498268
vt 0.248142 0.499309
vt 0.247564 0.499434
vt 0.219695 0.499238
vt 0.248367 0.001097
vt 0.247564 0.004861
vt 0.219695 0.002069
vt 0.248142 0.001500
vt 0.219897 0.001919
vt 0.002549 0.499434
vt 0.219897 0.499088
vt 0.248367 0.498905
vt 0.002549 0.004861
vt 0.220666 0.499309
vt 0.002662 0.499872
vt 0.248810 0.499243
vt 0.002662 0.004355
vt 0.220891 0.001097
vt 0.248810 0.002074
vt 0.220666 0.001500
vt 0.249012 0.001967
vt 0.247677 0.499872
vt 0.249012 0.499136
vt 0.247677 0.004355
vt 0.220891 0.498905
vt 0.748702 0.001618
vt 0.748955 0.748651
vt 0.496874 0.000663
vt 0.496273 0.000980
vt 0.748745 0.497826
vt 0.747426 0.001318
vt 0.496324 0.001230
vt 0.502541 0.496989
vt 0.502763 0.747983
vt 0.748442 0.498659
vt 0.748650 0.001368
vt 0.503841 0.495522
vt 0.748314 0.498593
vt 0.502347 0.748694
vt 0.502687 0.496412
vt 0.502030 0.495925
vt 0.502473 0.496793
vt 0.747974 0.498493
vt 0.502524 0.497043
vt 0.496728 0.001241
vt 0.748539 0.749362
vt 0.746049 0.001485
vt 0.749395 0.498537
vt 0.748263 0.498343
vt 0.001015 0.499464
vt 0.134117 0.707729
vt 0.000520 0.000400
vt 0.133984 0.710861
vt 0.000431 0.000923
vt 0.249511 0.497891
vt 0.137001 0.707214
vt 0.249981 0.497991
vt 0.249820 0.000697
vt 0.137001 0.710114
vt 0.000856 0.000360
vt 0.129562 0.960938
vt 0.001377 0.498166
vt 0.114103 0.962498
vt 0.001392 0.498479
vt 0.249450 0.000908
vt 0.129562 0.945401
vt 0.249376 0.000707
vt 0.114103 0.946960
vt 0.249754 0.498084
vt 0.997671 0.007430
vt 0.752937 0.750131
vt 0.750913 0.002269
vt 0.751873 0.003041
vt 1.000338 0.750131
vt 0.998664 0.003245
vt 0.749920 0.006454
vt 0.753524 0.497375
vt 0.752937 0.501725
vt 1.001275 0.500305
vt 0.999625 0.004017
vt 0.999722 0.502340
vt 0.999625 0.503805
vt 0.752866 0.496715
vt 0.753826 0.497462
vt 1.000617 0.499645
vt 0.751873 0.500875
vt 0.751571 0.002930
vt 0.999322 0.003906
vt 1.001578 0.500392
vt 0.749927 0.530926
vt 0.501289 0.532712
vt 0.720033 0.531342
vt 0.749878 0.406987
vt 0.503730 0.749352
vt 0.719301 0.406820
vt 0.749682 0.406648
vt 0.749964 0.530877
vt 0.749708 0.532186
vt 0.749720 0.406600
vt 0.750122 0.531265
vt 0.749048 0.748826
vt 0.720387 0.530682
vt 0.749973 0.532181
vt 0.749576 0.531586
vt 0.749085 0.748821
vt 0.719850 0.406499
vt 0.749332 0.407308
vt 0.719655 0.406160
vt 0.720421 0.530633
vt 0.501554 0.532707
vt 0.719688 0.406112
vt 0.503767 0.749347
vt 0.720582 0.531021
vt 0.502077 0.499082
vt 0.749033 0.499311
vt 0.749743 0.000777
vt 0.500731 0.749507
vt 0.749649 0.000646
vt 0.749055 0.499364
vt 0.501480 0.749703
vt 0.749016 0.499352
vt 0.500961 0.499050
vt 0.749782 0.000841
vt 0.501328 0.498886
vt 0.500961 0.000954
vt 0.749105 0.500272
vt 0.500892 0.499067
vt 0.500931 0.001028
vt 0.500892 0.000954
vt 0.748908 0.749490
vt 0.500979 0.499155
vt 0.749657 0.749686
vt 0.501018 0.499102
vt 0.748964 0.499327
vt 0.500969 0.000974
vt 0.749580 0.000647
vt 0.748356 0.500076
vt 0.747776 0.498522
vt 0.500853 0.499156
vt 0.502514 0.749026
vt 0.747776 0.002245
vt 0.500914 0.001058
vt 0.500852 0.001086
vt 0.502475 0.498522
vt 0.500852 0.499183
vt 0.747816 0.749026
vt 0.502475 0.002245
vt 0.747776 0.748997
vt 0.502514 0.002333
vt 0.748871 0.499186
vt 0.502514 0.498433
vt 0.749662 0.000623
vt 0.502475 0.748997
vt 0.749656 0.000796
vt 0.747816 0.002333
vt 0.749019 0.499359
vt 0.747816 0.498433
vt 0.748102 0.748428
vt 0.502934 0.003065
vt 0.748016 0.003072
vt 0.748108 0.501004
vt 0.502934 0.498385
vt 0.748093 0.498412
vt 0.747310 0.500381
vt 0.748078 0.498405
vt 0.748087 0.003065
vt 0.748001 0.003064
vt 0.748900 0.749051
vt 0.748087 0.498385
vt 0.503239 0.747353
vt 0.747871 0.003080
vt 0.502632 0.003091
vt 0.747871 0.498461
vt 0.502101 0.498206
vt 0.502632 0.498478
vt 0.501304 0.497583
vt 0.502616 0.498463
vt 0.502718 0.003080
vt 0.502616 0.002890
vt 0.502718 0.498461
vt 0.504036 0.747976
vt 0.247524 0.002245
vt 0.000690 0.749817
vt 0.247826 0.502088
vt 0.001478 0.001868
vt 0.248331 0.749817
vt 0.001215 0.502088
vt 0.000913 0.002245
vt 0.247678 0.001575
vt 0.000690 0.502623
vt 0.001067 0.001575
vt 0.248089 0.001868
vt 0.248331 0.502623
vt 0.247524 0.502461
vt 0.000984 0.502623
vt 0.247826 0.001861
vt 0.248602 0.502623
vt 0.001478 0.502083
vt 0.001215 0.001861
vt 0.000913 0.502461
vt 0.247678 0.501801
vt 0.000984 0.749817
vt 0.001067 0.501801
vt 0.248602 0.749817
vt 0.248089 0.502083
s 0
usemtl Material.020
f 1/1/1 5/12/1 7/18/1 3/6/1
f 4/9/2 3/7/2 7/19/2 8/21/2
f 8/22/3 7/20/3 5/13/3 6/15/3
f 6/16/4 2/3/4 4/10/4 8/23/4
f 2/4/5 1/2/5 3/8/5 4/11/5
f 6/17/6 5/14/6 1/2/6 2/5/6
f 9/24/7 13/36/7 15/42/7 11/30/7
f 12/33/2 11/31/2 15/43/2 16/45/2
f 16/46/8 15/44/8 13/37/8 14/39/8
f 14/40/9 10/27/9 12/34/9 16/47/9
f 10/28/10 9/25/10 11/32/10 12/35/10
f 14/41/6 13/38/6 9/26/6 10/29/6
f 17/48/11 21/60/11 23/66/11 19/54/11
f 20/57/2 19/55/2 23/67/2 24/69/2
f 24/70/12 23/68/12 21/61/12 22/63/12
f 22/64/13 18/51/13 20/58/13 24/71/13
f 18/52/14 17/49/14 19/56/14 20/59/14
f 22/65/6 21/62/6 17/50/6 18/53/6
f 25/72/15 29/84/15 31/90/15 27/78/15
f 28/81/2 27/79/2 31/91/2 32/93/2
f 32/94/16 31/92/16 29/85/16 30/87/16
f 30/88/17 26/75/17 28/82/17 32/95/17
f 26/76/18 25/73/18 27/80/18 28/83/18
f 30/89/6 29/86/6 25/74/6 26/77/6
f 33/96/15 37/108/15 39/114/15 35/102/15
f 36/105/2 35/103/2 39/115/2 40/117/2
f 40/118/16 39/116/16 37/109/16 38/111/16
f 38/112/17 34/99/17 36/106/17 40/119/17
f 34/100/18 33/97/18 35/104/18 36/107/18
f 38/113/6 37/110/6 33/98/6 34/101/6
f 41/120/7 45/132/7 47/138/7 43/126/7
f 44/129/2 43/127/2 47/139/2 48/141/2
f 48/142/8 47/140/8 45/133/8 46/135/8
f 46/136/9 42/123/9 44/130/9 48/143/9
f 42/124/10 41/121/10 43/128/10 44/131/10
f 46/137/6 45/134/6 41/122/6 42/125/6
f 49/144/1 53/156/1 55/162/1 51/150/1
f 52/153/2 51/151/2 55/163/2 56/165/2
f 56/166/3 55/164/3 53/157/3 54/159/3
f 54/160/4 50/147/4 52/154/4 56/167/4
f 50/148/5 49/145/5 51/152/5 52/155/5
f 54/161/6 53/158/6 49/146/6 50/149/6
f 57/168/19 61/180/19 63/186/19 59/174/19
f 60/177/2 59/175/2 63/187/2 64/189/2
f 64/190/20 63/188/20 61/181/20 62/183/20
f 62/184/21 58/171/21 60/178/21 64/191/21
f 58/172/22 57/169/22 59/176/22 60/179/22
f 62/185/6 61/182/6 57/170/6 58/173/6
f 65/192/23 69/204/23 71/210/23 67/198/23
f 68/201/2 67/199/2 71/211/2 72/213/2
f 72/214/24 71/212/24 69/205/24 70/207/24
f 70/208/25 66/195/25 68/202/25 72/215/25
f 66/196/26 65/193/26 67/200/26 68/203/26
f 70/209/6 69/206/6 65/194/6 66/197/6
f 73/216/7 77/228/7 79/234/7 75/222/7
f 76/225/2 75/223/2 79/235/2 80/237/2
f 80/238/8 79/236/8 77/229/8 78/231/8
f 78/232/9 74/219/9 76/226/9 80/239/9
f 74/220/10 73/217/10 75/224/10 76/227/10
f 78/233/6 77/230/6 73/218/6 74/221/6
f 81/240/27 85/252/27 87/258/27 83/246/27
f 84/249/2 83/247/2 87/259/2 88/261/2
f 88/262/28 87/260/28 85/253/28 86/255/28
f 86/256/29 82/243/29 84/250/29 88/263/29
f 82/244/30 81/241/30 83/248/30 84/251/30
f 86/257/6 85/254/6 81/242/6 82/245/6
f 89/264/7 93/276/7 95/282/7 91/270/7
f 92/273/2 91/271/2 95/283/2 96/285/2
f 96/286/8 95/284/8 93/277/8 94/279/8
f 94/280/9 90/267/9 92/274/9 96/287/9
f 90/268/10 89/265/10 91/272/10 92/275/10
f 94/281/6 93/278/6 89/266/6 90/269/6
f 97/288/31 101/298/31 103/303/31 99/293/31
f 100/295/32 99/293/32 103/303/32 104/305/32
f 104/306/8 103/304/8 101/299/8 102/301/8
f 102/302/33 98/292/33 100/296/33 104/307/33
f 98/291/10 97/289/10 99/294/10 100/297/10
f 102/302/34 101/300/34 97/290/34 98/292/34
f 105/308/1 109/320/1 111/324/1 107/314/1
f 108/317/2 107/315/2 111/325/2 112/326/2
f 110/322/4 106/311/4 108/318/4 112/327/4
f 106/312/5 105/309/5 107/316/5 108/319/5
f 110/323/6 109/321/6 105/310/6 106/313/6
f 113/328/1 117/340/1 119/346/1 115/334/1
f 116/337/2 115/335/2 119/347/2 120/349/2
f 120/350/3 119/348/3 117/341/3 118/343/3
f 118/344/4 114/331/4 116/338/4 120/351/4
f 114/332/5 113/329/5 115/336/5 116/339/5
f 118/345/6 117/342/6 113/330/6 114/333/6
f 121/352/35 125/364/35 127/370/35 123/358/35
f 124/361/2 123/359/2 127/371/2 128/373/2
f 128/374/36 127/372/36 125/365/36 126/367/36
f 126/368/37 122/355/37 124/362/37 128/375/37
f 122/356/38 121/353/38 123/360/38 124/363/38
f 126/369/6 125/366/6 121/354/6 122/357/6
f 129/376/39 133/386/39 135/391/39 131/382/39
f 132/383/2 131/381/2 135/392/2 136/394/2
f 136/395/40 135/393/40 133/387/40 134/389/40
f 134/389/41 130/378/41 132/384/41 136/395/41
f 130/379/42 129/376/42 131/382/42 132/385/42
f 134/390/6 133/388/6 129/377/6 130/380/6
f 137/396/43 141/408/43 143/414/43 139/402/43
f 140/405/2 139/403/2 143/415/2 144/417/2
f 144/418/44 143/416/44 141/409/44 142/411/44
f 142/412/45 138/399/45 140/406/45 144/419/45
f 138/400/46 137/397/46 139/404/46 140/407/46
f 142/413/6 141/410/6 137/398/6 138/401/6
f 145/420/1 149/432/1 151/438/1 147/426/1
f 148/429/2 147/427/2 151/439/2 152/441/2
f 152/442/3 151/440/3 149/433/3 150/435/3
f 150/436/4 146/423/4 148/430/4 152/443/4
f 146/424/5 145/421/5 147/428/5 148/431/5
f 150/437/6 149/434/6 145/422/6 146/425/6
