# Blender 3.3.1
# www.blender.org
mtllib vis_condenser.mtl
o cube.007
v 0.437500 1.187500 -0.375000
v 0.437500 1.187500 -0.437500
v 0.437500 0.187500 -0.375000
v 0.437500 0.187500 -0.437500
v 0.375000 1.187500 -0.437500
v 0.375000 1.187500 -0.375000
v 0.375000 0.187500 -0.437500
v 0.375000 0.187500 -0.375000
v 0.500000 -0.375000 0.500000
v 0.500000 -0.375000 -0.500000
v 0.500000 -0.500000 0.500000
v 0.500000 -0.500000 -0.500000
v -0.500000 -0.375000 -0.500000
v -0.500000 -0.375000 0.500000
v -0.500000 -0.500000 -0.500000
v -0.500000 -0.500000 0.500000
v 0.437500 -0.312500 0.437500
v 0.437500 -0.312500 -0.437500
v 0.437500 -0.375000 0.437500
v 0.437500 -0.375000 -0.437500
v -0.437500 -0.312500 -0.437500
v -0.437500 -0.312500 0.437500
v -0.437500 -0.375000 -0.437500
v -0.437500 -0.375000 0.437500
v 0.500000 0.187500 0.500000
v 0.500000 0.187500 -0.500000
v 0.500000 -0.312500 0.500000
v 0.250000 0.125000 0.250000
v 0.500000 -0.312500 -0.500000
v 0.250000 0.125000 -0.250000
v -0.500000 0.187500 -0.500000
v -0.500000 0.187500 0.500000
v -0.500000 -0.312500 -0.500000
v -0.250000 0.125000 -0.250000
v -0.500000 -0.312500 0.500000
v -0.250000 0.125000 0.250000
v 0.250000 0.187500 -0.250000
v -0.250000 0.187500 0.250000
v 0.250000 0.187500 0.250000
v -0.250000 0.187500 -0.250000
v -0.375000 1.187500 -0.375000
v -0.375000 1.187500 -0.437500
v -0.375000 0.187500 -0.375000
v -0.375000 0.187500 -0.437500
v -0.437500 1.187500 -0.437500
v -0.437500 1.187500 -0.375000
v -0.437500 0.187500 -0.437500
v -0.437500 0.187500 -0.375000
v -0.375000 1.187500 0.437500
v -0.375000 1.187500 0.375000
v -0.375000 0.187500 0.437500
v -0.375000 0.187500 0.375000
v -0.437500 1.187500 0.375000
v -0.437500 1.187500 0.437500
v -0.437500 0.187500 0.375000
v -0.437500 0.187500 0.437500
v 0.437500 1.187500 0.437500
v 0.437500 1.187500 0.375000
v 0.437500 0.187500 0.437500
v 0.437500 0.187500 0.375000
v 0.375000 1.187500 0.375000
v 0.375000 1.187500 0.437500
v 0.375000 0.187500 0.375000
v 0.375000 0.187500 0.437500
vn -0.0000 -0.0000 -1.0000
vn 1.0000 -0.0000 -0.0000
vn -0.0000 -0.0000 1.0000
vn -1.0000 -0.0000 -0.0000
vn -0.0000 1.0000 -0.0000
vn -0.0000 -1.0000 -0.0000
vt 0.499806 0.812306
vt 0.499806 0.750488
vt 0.469819 0.750356
vt 0.499806 0.812306
vt 0.499806 0.750488
vt 0.000145 0.812322
vt 0.000201 0.750387
vt 0.499806 0.750488
vt 0.000145 0.812322
vt 0.000201 0.750387
vt 0.469819 0.750356
vt 0.499806 0.750488
vt 0.499806 0.812306
vt 0.469194 0.812225
vt 0.499806 0.812306
vt 0.499806 0.750488
vt 0.000145 0.812322
vt 0.469194 0.812225
vt 0.000201 0.750387
vt 0.000145 0.812322
vt 0.000201 0.750387
vt 0.499806 0.812306
vt 0.000145 0.124817
vt 0.499016 0.124430
vt 1.000000 0.000000
vt 0.000145 0.124709
vt 0.499023 0.124430
vt 1.000000 1.000000
vt 0.000097 0.000302
vt 0.498338 0.001077
vt 0.499402 0.124492
vt 0.000048 0.000097
vt 0.499314 0.001077
vt 0.499402 0.000923
vt 0.499597 0.124806
vt 0.000145 0.124817
vt 0.499539 1.000000
vt 0.499539 0.000000
vt 0.000145 0.124817
vt 0.499016 0.124430
vt 0.000097 0.000302
vt 0.438033 0.000923
vt 0.499597 0.000000
vt 0.000097 0.000302
vt 0.498338 0.001077
vt 0.438033 0.124492
vt 0.032227 0.187000
vt 0.468432 0.187000
vt 0.875000 0.125000
vt 0.032227 0.186391
vt 0.468432 0.187000
vt 0.875000 1.000000
vt 0.032227 0.125977
vt 0.468432 0.125977
vt 0.875000 1.000000
vt 0.032227 0.125368
vt 0.468432 0.125977
vt 0.875000 0.125000
vt 0.468375 0.186391
vt 0.032227 0.186391
vt 0.000000 1.000000
vt 0.000145 0.124709
vt 0.032227 0.187000
vt 0.468375 0.186391
vt 0.032227 0.125368
vt 0.000145 0.124709
vt 0.468375 0.125368
vt 0.032227 0.125977
vt 0.468375 0.125368
vt 0.000000 1.000000
vt 0.000145 0.687337
vt 0.499903 0.687311
vt 1.000000 0.000000
vt 0.000145 0.687337
vt 0.499850 0.687337
vt 1.000000 1.000000
vt 0.000145 0.188079
vt 0.499855 0.187821
vt 0.999952 0.999806
vt 0.625000 0.750000
vt 0.875000 0.750000
vt 0.000145 0.188079
vt 0.499802 0.187790
vt 0.999903 0.000194
vt 0.625000 0.750000
vt 0.875000 0.750000
vt 0.875000 0.250000
vt 0.499850 0.687337
vt 0.000145 0.687311
vt 0.500310 1.000000
vt 0.500135 0.999806
vt 0.000145 0.687311
vt 0.499903 0.687311
vt 0.500145 0.000000
vt 0.000145 0.187918
vt 0.499948 0.000488
vt 0.499802 0.187790
vt 0.625000 0.250000
vt 0.875000 0.750000
vt 0.625000 0.750000
vt 0.000145 0.187918
vt 0.499855 0.187821
vt 0.500341 0.999539
vt 0.875000 0.750000
vt 0.625000 0.750000
vt 0.875000 0.812500
vt 0.875000 0.750000
vt 0.874885 0.750000
vt 0.625000 0.812500
vt 0.875000 0.812500
vt 0.625000 0.250000
vt 0.625000 0.812500
vt 0.874023 0.250000
vt 0.625000 0.812500
vt 0.875000 0.812500
vt 0.875000 0.812500
vt 0.625147 0.750000
vt 0.626500 0.750000
vt 0.625000 0.812500
vt 0.499806 0.812306
vt 0.499806 0.750488
vt 0.469819 0.750356
vt 0.499806 0.812306
vt 0.499806 0.750488
vt 0.000145 0.812322
vt 0.000201 0.750387
vt 0.499806 0.750488
vt 0.000145 0.812322
vt 0.000201 0.750387
vt 0.469819 0.750356
vt 0.499806 0.750488
vt 0.499806 0.812306
vt 0.469194 0.812225
vt 0.499806 0.812306
vt 0.499806 0.750488
vt 0.000145 0.812322
vt 0.469194 0.812225
vt 0.000201 0.750387
vt 0.000145 0.812322
vt 0.000201 0.750387
vt 0.499806 0.812306
vt 0.499806 0.812306
vt 0.499806 0.750488
vt 0.469819 0.750356
vt 0.499806 0.812306
vt 0.499806 0.750488
vt 0.000145 0.812322
vt 0.000201 0.750387
vt 0.499806 0.750488
vt 0.000145 0.812322
vt 0.000201 0.750387
vt 0.469819 0.750356
vt 0.499806 0.750488
vt 0.499806 0.812306
vt 0.469194 0.812225
vt 0.499806 0.812306
vt 0.499806 0.750488
vt 0.000145 0.812322
vt 0.469194 0.812225
vt 0.000201 0.750387
vt 0.000145 0.812322
vt 0.000201 0.750387
vt 0.499806 0.812306
vt 0.499806 0.812306
vt 0.499806 0.750488
vt 0.469819 0.750356
vt 0.499806 0.812306
vt 0.499806 0.750488
vt 0.000145 0.812322
vt 0.000201 0.750387
vt 0.499806 0.750488
vt 0.000145 0.812322
vt 0.000201 0.750387
vt 0.469819 0.750356
vt 0.499806 0.750488
vt 0.499806 0.812306
vt 0.469194 0.812225
vt 0.499806 0.812306
vt 0.499806 0.750488
vt 0.000145 0.812322
vt 0.469194 0.812225
vt 0.000201 0.750387
vt 0.000145 0.812322
vt 0.000201 0.750387
vt 0.499806 0.812306
s 0
usemtl Material.001
f 7/19/1 2/4/1 4/9/1
f 4/10/2 1/1/2 3/6/2
f 3/7/3 6/15/3 8/20/3
f 8/21/4 5/13/4 7/17/4
f 1/3/5 5/13/5 6/14/5
f 4/11/6 8/22/6 7/18/6
f 15/43/1 10/26/1 12/32/1
f 12/33/2 9/23/2 11/29/2
f 11/30/3 14/39/3 16/44/3
f 16/45/4 13/36/4 15/41/4
f 9/25/5 13/37/5 14/38/5
f 12/34/6 16/46/6 15/42/6
f 23/67/1 18/50/1 20/56/1
f 20/57/2 17/47/2 19/53/2
f 19/54/3 22/63/3 24/68/3
f 24/69/4 21/60/4 23/65/4
f 17/49/5 21/61/5 22/62/5
f 20/58/6 24/70/6 23/66/6
f 33/97/1 26/74/1 29/82/1
f 29/83/2 25/71/2 27/77/2
f 27/78/3 32/92/3 35/101/3
f 35/102/4 31/89/4 33/95/4
f 32/94/5 25/73/5 38/111/5
f 31/91/5 37/108/5 26/76/5
f 29/84/6 35/103/6 33/96/6
f 34/99/3 37/109/3 40/116/3
f 30/86/4 39/114/4 37/106/4
f 36/105/1 39/115/1 28/81/1
f 36/104/2 40/119/2 38/110/2
f 36/105/5 30/87/5 34/98/5
f 47/138/1 42/123/1 44/128/1
f 44/129/2 41/120/2 43/125/2
f 43/126/3 46/134/3 48/139/3
f 48/140/4 45/132/4 47/136/4
f 41/122/5 45/132/5 46/133/5
f 44/130/6 48/141/6 47/137/6
f 55/160/1 50/145/1 52/150/1
f 52/151/2 49/142/2 51/147/2
f 51/148/3 54/156/3 56/161/3
f 56/162/4 53/154/4 55/158/4
f 49/144/5 53/154/5 54/155/5
f 52/152/6 56/163/6 55/159/6
f 63/182/1 58/167/1 60/172/1
f 60/173/2 57/164/2 59/169/2
f 59/170/3 62/178/3 64/183/3
f 64/184/4 61/176/4 63/180/4
f 57/166/5 61/176/5 62/177/5
f 60/174/6 64/185/6 63/181/6
f 7/19/1 5/12/1 2/4/1
f 4/10/2 2/5/2 1/1/2
f 3/7/3 1/2/3 6/15/3
f 8/21/4 6/16/4 5/13/4
f 1/3/5 2/5/5 5/13/5
f 4/11/6 3/8/6 8/22/6
f 15/43/1 13/35/1 10/26/1
f 12/33/2 10/27/2 9/23/2
f 11/30/3 9/24/3 14/39/3
f 16/45/4 14/40/4 13/36/4
f 9/25/5 10/28/5 13/37/5
f 12/34/6 11/31/6 16/46/6
f 23/67/1 21/59/1 18/50/1
f 20/57/2 18/51/2 17/47/2
f 19/54/3 17/48/3 22/63/3
f 24/69/4 22/64/4 21/60/4
f 17/49/5 18/52/5 21/61/5
f 20/58/6 19/55/6 24/70/6
f 33/97/1 31/88/1 26/74/1
f 29/83/2 26/75/2 25/71/2
f 27/78/3 25/72/3 32/92/3
f 35/102/4 32/93/4 31/89/4
f 38/111/5 40/117/5 31/90/5
f 25/73/5 26/76/5 37/107/5
f 25/73/5 37/107/5 39/113/5
f 38/111/5 31/90/5 32/94/5
f 25/73/5 39/113/5 38/111/5
f 31/91/5 40/118/5 37/108/5
f 29/84/6 27/79/6 35/103/6
f 34/99/3 30/85/3 37/109/3
f 30/86/4 28/80/4 39/114/4
f 36/105/1 38/112/1 39/115/1
f 36/104/2 34/100/2 40/119/2
f 36/105/5 28/81/5 30/87/5
f 47/138/1 45/131/1 42/123/1
f 44/129/2 42/124/2 41/120/2
f 43/126/3 41/121/3 46/134/3
f 48/140/4 46/135/4 45/132/4
f 41/122/5 42/124/5 45/132/5
f 44/130/6 43/127/6 48/141/6
f 55/160/1 53/153/1 50/145/1
f 52/151/2 50/146/2 49/142/2
f 51/148/3 49/143/3 54/156/3
f 56/162/4 54/157/4 53/154/4
f 49/144/5 50/146/5 53/154/5
f 52/152/6 51/149/6 56/163/6
f 63/182/1 61/175/1 58/167/1
f 60/173/2 58/168/2 57/164/2
f 59/170/3 57/165/3 62/178/3
f 64/184/4 62/179/4 61/176/4
f 57/166/5 58/168/5 61/176/5
f 60/174/6 59/171/6 64/185/6
